<svg width="40" height="40" viewBox="0 0 40 40" fill="none" xmlns="http://www.w3.org/2000/svg">
<path d="M6.66675 16.6667C6.66675 15.7462 7.41294 15 8.33341 15H31.6667C32.5872 15 33.3334 15.7462 33.3334 16.6667V30C33.3334 32.7614 31.0948 35 28.3334 35H11.6667C8.90532 35 6.66675 32.7614 6.66675 30V16.6667Z" fill="url(#paint0_linear_978_7567)" fill-opacity="0.5"/>
<path d="M16.6667 28.3333C16.6667 26.4924 18.1591 25 20.0001 25C21.841 25 23.3334 26.4924 23.3334 28.3333V33.3333C23.3334 34.2538 22.5872 35 21.6667 35H18.3334C17.4129 35 16.6667 34.2538 16.6667 33.3333V28.3333Z" fill="#1E2136"/>
<path d="M8.16691 7.06302C9.28133 5.69033 10.9933 5 12.7614 5H27.2386C29.0067 5 30.7187 5.69033 31.8331 7.06302C33.2602 8.82079 35 13.0337 35 15C35 18.3333 33.3333 20 30 20C27.5417 20 25.9899 18.187 25.3445 17.2352C25.1904 17.0078 24.8096 17.0078 24.6555 17.2352C24.0101 18.187 22.4583 20 20 20C17.5417 20 15.9899 18.187 15.3445 17.2352C15.1904 17.0078 14.8096 17.0078 14.6555 17.2352C14.0101 18.187 12.4583 20 10 20C6.66667 20 5 18.3333 5 15C5 13.0337 6.73985 8.82079 8.16691 7.06302Z" fill="#1E2136"/>
<defs>
<linearGradient id="paint0_linear_978_7567" x1="20.0001" y1="15" x2="20.0001" y2="35" gradientUnits="userSpaceOnUse">
<stop stop-color="#ADB1B5"/>
<stop offset="1" stop-color="#8D9298"/>
</linearGradient>
</defs>
</svg>
