<svg width="40" height="40" viewBox="0 0 40 40" fill="none" xmlns="http://www.w3.org/2000/svg">
<path d="M36.6666 31.6667C36.6666 34.4281 34.428 36.6667 31.6666 36.6667C28.9052 36.6667 26.6666 34.4281 26.6666 31.6667C26.6666 28.9053 28.9052 26.6667 31.6666 26.6667C34.428 26.6667 36.6666 28.9053 36.6666 31.6667Z" fill="url(#paint0_linear_978_7593)" fill-opacity="0.5"/>
<path fill-rule="evenodd" clip-rule="evenodd" d="M25.8333 6.66665C23.5321 6.66665 21.6666 8.53213 21.6666 10.8333V29.1666C21.6666 33.3088 18.3088 36.6666 14.1666 36.6666C10.0245 36.6666 6.66663 33.3088 6.66663 29.1666V16.6666C6.66663 15.7462 7.41282 15 8.33329 15C9.25377 15 9.99996 15.7462 9.99996 16.6666V29.1666C9.99996 31.4678 11.8654 33.3333 14.1666 33.3333C16.4678 33.3333 18.3333 31.4678 18.3333 29.1666V10.8333C18.3333 6.69118 21.6912 3.33331 25.8333 3.33331C29.9754 3.33331 33.3333 6.69118 33.3333 10.8333V21.6666C33.3333 22.5871 32.5871 23.3333 31.6666 23.3333C30.7462 23.3333 30 22.5871 30 21.6666V10.8333C30 8.53213 28.1345 6.66665 25.8333 6.66665Z" fill="#1E2136"/>
<path d="M6.89369 4.13462C7.53682 3.03211 9.12983 3.03211 9.77296 4.13462L12.7046 9.16023C13.3527 10.2713 12.5512 11.6667 11.2649 11.6667H5.40172C4.1154 11.6667 3.31395 10.2713 3.96209 9.16023L6.89369 4.13462Z" fill="url(#paint1_linear_978_7593)" fill-opacity="0.5"/>
<defs>
<linearGradient id="paint0_linear_978_7593" x1="31.6666" y1="26.6667" x2="31.6666" y2="36.6667" gradientUnits="userSpaceOnUse">
<stop stop-color="#ADB1B5"/>
<stop offset="1" stop-color="#8D9298"/>
</linearGradient>
<linearGradient id="paint1_linear_978_7593" x1="8.33333" y1="3.30774" x2="8.33333" y2="11.6667" gradientUnits="userSpaceOnUse">
<stop stop-color="#ADB1B5"/>
<stop offset="1" stop-color="#8D9298"/>
</linearGradient>
</defs>
</svg>
