<svg width="40" height="40" viewBox="0 0 40 40" fill="none" xmlns="http://www.w3.org/2000/svg">
<path d="M36.2212 9.46745C36.8476 8.79293 36.8085 7.73838 36.134 7.11204C35.4595 6.4857 34.4049 6.52476 33.7786 7.19928L14.4657 27.9978C13.8229 28.6901 12.7338 28.7102 12.0658 28.0422L6.17843 22.1548C5.52756 21.504 4.47228 21.504 3.82141 22.1548C3.17053 22.8057 3.17053 23.861 3.82141 24.5119L9.7088 30.3993C11.7127 32.4032 14.9799 32.3427 16.9083 30.266L28.8387 17.4179C29.1601 17.0718 29.7046 17.0617 30.0386 17.3957L32.1547 19.5119C32.8056 20.1627 33.8609 20.1627 34.5118 19.5119C35.1626 18.861 35.1626 17.8057 34.5118 17.1548L32.2647 14.9077C31.9477 14.5908 31.9382 14.0799 32.2432 13.7514L36.2212 9.46745Z" fill="#1E2136"/>
<path d="M16.6667 31.6666C16.6667 33.5076 15.1743 35 13.3333 35C11.4924 35 10 33.5076 10 31.6666C10 29.8257 11.4924 28.3333 13.3333 28.3333C15.1743 28.3333 16.6667 29.8257 16.6667 31.6666Z" fill="#1E2136"/>
<path d="M5.69042 17.357L10.9764 22.643C12.2781 23.9447 14.3887 23.9447 15.6904 22.643L24.3097 14.0237C25.6115 12.7219 25.6115 10.6114 24.3097 9.30963L19.0238 4.02367C17.722 2.72193 15.6115 2.72193 14.3097 4.02367L5.69042 12.643C4.38867 13.9447 4.38868 16.0553 5.69042 17.357Z" fill="url(#paint0_linear_978_7554)"/>
<defs>
<linearGradient id="paint0_linear_978_7554" x1="15.0001" y1="3.04736" x2="15.0001" y2="23.6193" gradientUnits="userSpaceOnUse">
<stop stop-color="#ADB1B5"/>
<stop offset="1" stop-color="#8D9298"/>
</linearGradient>
</defs>
</svg>
