<svg width="72" height="26" viewBox="0 0 72 26" fill="none" xmlns="http://www.w3.org/2000/svg">
<g clip-path="url(#clip0_1098_3697)">
<path fill-rule="evenodd" clip-rule="evenodd" d="M67.6849 10.432C67.6849 9.66802 68.2937 9.02627 69.0241 9.02627C69.7546 9.02627 70.3634 9.66802 70.3634 10.432C70.3634 11.196 69.7851 11.8378 69.0241 11.8378C68.2937 11.8683 67.6849 11.2266 67.6849 10.432ZM69.0241 11.5322C69.6024 11.5322 70.0286 11.0432 70.0286 10.4626C70.0286 9.88194 69.572 9.39299 69.0241 9.39299C68.4458 9.39299 68.0197 9.88194 68.0197 10.4626C68.0197 11.0432 68.4763 11.5322 69.0241 11.5322ZM68.8415 11.0738H68.5676V9.82082H69.085C69.1763 9.82082 69.2981 9.82082 69.3894 9.88194C69.4807 9.94306 69.5416 10.0653 69.5416 10.1875C69.5416 10.3403 69.4503 10.4626 69.3285 10.4931L69.5416 11.0432H69.2372L69.0546 10.5543H68.8415V11.0738ZM68.8415 10.3709H68.9937C69.0546 10.3709 69.1155 10.3709 69.1459 10.3403C69.1763 10.3098 69.2068 10.2487 69.2068 10.1875C69.2068 10.157 69.1763 10.0959 69.1459 10.0653C69.1155 10.0347 69.0241 10.0347 68.9937 10.0347H68.8415C68.872 10.0653 68.8415 10.3709 68.8415 10.3709ZM48.5401 1.0502L48.1748 3.46441C47.3835 3.03657 46.8052 2.88378 46.166 2.88378C44.492 2.88378 43.3354 4.59512 43.3354 7.00933C43.3354 8.69011 44.1267 9.69858 45.4355 9.69858C45.9834 9.69858 46.5921 9.51523 47.353 9.11795L46.9574 11.6544C46.1356 11.8989 45.5877 11.9906 44.979 11.9906C42.5744 11.9906 41.0526 10.157 41.0526 7.22325C41.0526 3.28105 43.1223 0.500122 46.1051 0.500122C46.5008 0.500122 46.8356 0.530682 47.1095 0.622361L48.0531 0.866838C48.2661 0.958517 48.327 0.958517 48.5401 1.0502ZM41.083 2.70042C41.0222 2.66986 40.9308 2.66986 40.87 2.66986C40.1395 2.66986 39.7134 3.06713 39.0133 4.13672L39.2264 2.76154H37.1871L35.8174 11.7461H38.0698C38.8916 6.24534 39.0742 5.29799 40.1699 5.29799H40.3221C40.5352 4.2284 40.7787 3.43385 41.1743 2.70042H41.083ZM27.6908 11.6238C27.082 11.8378 26.595 11.9294 26.0776 11.9294C24.9514 11.9294 24.3123 11.2266 24.3123 9.94306C24.3123 9.69858 24.3427 9.42355 24.3731 9.11795L24.5253 8.23172L24.6166 7.52885L25.5906 1.38635H27.8125L27.5386 2.70042H28.6952L28.3604 4.87015H27.2647L26.6559 8.69011C26.6255 8.84291 26.6255 8.96515 26.6255 9.05683C26.6255 9.51523 26.869 9.72914 27.3864 9.72914C27.6603 9.72914 27.843 9.69858 27.9951 9.63746L27.6908 11.6238ZM18.8336 5.60359C18.8336 6.7343 19.351 7.52885 20.5381 8.10948C21.4208 8.56787 21.6034 8.69011 21.6034 9.11795C21.6034 9.66802 21.2077 9.94306 20.325 9.94306C19.6554 9.94306 19.0467 9.85138 18.3162 9.57634L18.0118 11.6544L18.1031 11.685L18.4988 11.7766C18.651 11.8072 18.8336 11.8378 19.0771 11.8683C19.5945 11.8989 20.0207 11.96 20.325 11.96C22.6687 11.96 23.7644 11.0126 23.7644 8.96515C23.7644 7.74276 23.3078 7.00933 22.1817 6.45926C21.2381 6.00086 21.1468 5.90918 21.1468 5.48135C21.1468 4.99239 21.5121 4.74792 22.2426 4.74792C22.6991 4.74792 23.2774 4.80904 23.8557 4.90071L24.1905 2.82266C23.5513 2.70042 22.8817 2.6393 22.2121 2.6393C19.6859 2.57818 18.8336 3.92281 18.8336 5.60359ZM66.4066 11.7461H64.276L64.3673 10.8599C63.7586 11.5627 63.1194 11.8683 62.2976 11.8683C60.654 11.8683 59.5887 10.3709 59.5887 8.14004C59.5887 5.14519 61.2627 2.60874 63.2411 2.60874C64.1238 2.60874 64.763 3.00602 65.4022 3.83113L65.8891 0.68348H68.111L66.4066 11.7461ZM63.0889 9.63746C64.1542 9.63746 64.8847 8.38452 64.8847 6.61206C64.8847 5.48135 64.4586 4.8396 63.6977 4.8396C62.6933 4.8396 61.9628 6.09254 61.9628 7.865C61.9323 9.02627 62.328 9.63746 63.0889 9.63746ZM34.7826 11.5627C34.0217 11.8072 33.2607 11.9294 32.4694 11.9294C29.9735 11.9294 28.6648 10.5543 28.6648 7.89556C28.6648 4.80904 30.3388 2.54762 32.5911 2.54762C34.4478 2.54762 35.6044 3.83113 35.6044 5.8175C35.6044 6.45926 35.5131 7.13157 35.3304 8.04836H30.8562C30.8258 8.20116 30.8258 8.26228 30.8258 8.3234C30.8258 9.39299 31.4954 9.9125 32.8042 9.9125C33.5955 9.9125 34.326 9.72914 35.1478 9.33187C35.1174 9.33187 34.7826 11.5627 34.7826 11.5627ZM33.5347 6.18422C33.5651 6.00086 33.5651 5.84806 33.5651 5.72583C33.5651 4.99239 33.1694 4.56456 32.4998 4.56456C31.8302 4.56456 31.2823 5.14519 31.0693 6.18422H33.5347ZM9.82428 11.7461H7.60238L8.88073 3.25049L5.98922 11.7461H4.46738L4.28475 3.31161L2.91509 11.7461H0.814941L2.61072 0.68348H5.83704L5.92835 7.52885L8.08937 0.68348H11.5896L9.82428 11.7461ZM15.6073 7.74276C15.3638 7.7122 15.2725 7.7122 15.0899 7.7122C13.8115 7.7122 13.1723 8.1706 13.1723 9.08739C13.1723 9.63746 13.5071 10.0042 13.9941 10.0042C14.9072 9.97362 15.5769 9.05683 15.6073 7.74276ZM17.2509 11.7461H15.3942L15.4247 10.7987C14.8464 11.5627 14.1159 11.8683 13.081 11.8683C11.8636 11.8683 11.0418 10.8599 11.0418 9.42355C11.0418 7.22325 12.5027 5.9703 14.9681 5.9703C15.2421 5.9703 15.5464 6.00086 15.8812 6.03142C15.9421 5.72583 15.9725 5.60359 15.9725 5.45079C15.9725 4.87016 15.5769 4.62568 14.542 4.62568C13.9028 4.62568 13.1723 4.71736 12.6854 4.90071L12.3505 4.99239L12.1375 5.05351L12.4419 3.03657C13.568 2.70042 14.2985 2.54762 15.1203 2.54762C17.0378 2.54762 18.0727 3.46441 18.0727 5.17575C18.0727 5.63415 18.0423 5.93974 17.8901 6.97877L17.4335 10.1875L17.3422 10.7682L17.2813 11.2266L17.2509 11.5627C17.2813 11.5016 17.2509 11.7461 17.2509 11.7461ZM52.4056 7.74276C52.1925 7.7122 52.0708 7.7122 51.8881 7.7122C50.6098 7.7122 49.9706 8.1706 49.9706 9.08739C49.9706 9.63746 50.3054 10.0042 50.7924 10.0042C51.7055 9.97362 52.3751 9.05683 52.4056 7.74276ZM54.0187 11.7461H52.1621L52.1925 10.7987C51.6142 11.5627 50.8837 11.8683 49.8489 11.8683C48.6314 11.8683 47.8096 10.8599 47.8096 9.42355C47.8096 7.22325 49.2706 5.9703 51.736 5.9703C51.9795 5.9703 52.3143 6.00086 52.6491 6.03142C52.7099 5.72583 52.7404 5.60359 52.7404 5.45079C52.7404 4.87016 52.3447 4.62568 51.3098 4.62568C50.6707 4.62568 49.9402 4.71736 49.4532 4.90071L49.1184 4.99239L48.9053 5.05351L49.2097 3.03657C50.3359 2.70042 51.0663 2.54762 51.8881 2.54762C53.8057 2.54762 54.8405 3.46441 54.8405 5.17575C54.8405 5.63415 54.8101 5.93974 54.6579 6.97877L54.2014 10.157L54.1405 10.7376L54.0796 11.196L54.0492 11.5016L54.0187 11.7461ZM60.2887 2.70042C60.2279 2.66986 60.1366 2.66986 60.0757 2.66986C59.3452 2.66986 58.9191 3.06713 58.219 4.13672L58.4321 2.76154H56.3928L55.0231 11.7461H57.2755C58.0973 6.24534 58.2799 5.29799 59.3756 5.29799H59.5278C59.68 4.3812 59.9844 3.52553 60.3801 2.70042H60.2887Z" fill="#DDE2F6"/>
<path fill-rule="evenodd" clip-rule="evenodd" d="M50.8837 20.4556C50.8837 22.5031 50.2445 23.6949 49.2705 23.6949C48.54 23.7255 48.1139 22.9004 48.1139 21.7086C48.1139 20.2723 48.7531 18.6526 49.7879 18.6526C50.6097 18.6526 50.8837 19.5388 50.8837 20.4556ZM53.1056 20.4862C53.1056 18.2248 51.9794 16.4523 49.9097 16.4523C47.5052 16.4523 45.9224 18.5915 45.9224 21.7391C45.9224 24.0005 46.866 25.8647 49.1183 25.8647C51.3706 25.8647 53.1056 24.245 53.1056 20.4862ZM46.6225 14.8937L46.2877 17.308C45.5267 16.8801 45.0093 16.7273 44.431 16.7273C42.8787 16.7273 41.783 18.4387 41.783 20.8529C41.783 22.5337 42.5135 23.5421 43.731 23.5421C44.2484 23.5421 44.8267 23.3588 45.5267 22.9615L45.1615 25.498C44.4006 25.7424 43.8832 25.8341 43.3049 25.8341C41.0525 25.8341 39.622 24.0005 39.622 21.0668C39.622 17.1246 41.5699 14.3437 44.3397 14.3437C44.705 14.3437 45.0093 14.3742 45.2833 14.4659L46.1355 14.7104C46.379 14.7715 46.4399 14.8021 46.6225 14.8937ZM32.7737 16.5134C32.7128 16.4829 32.6215 16.4829 32.5606 16.4829C31.8606 16.4829 31.4953 16.8801 30.8257 17.9497L31.0388 16.5745H29.1517L27.8733 25.5591H29.9735C30.7344 20.0583 30.917 19.111 31.9214 19.111C31.962 19.111 32.0127 19.1212 32.0736 19.1415C32.2562 18.072 32.5302 17.2774 32.865 16.544L32.7737 16.5134ZM60.1061 25.498H58.1277L58.219 24.6117C57.6407 25.3146 57.0319 25.6202 56.271 25.6202C54.7491 25.6202 53.7447 24.1228 53.7447 21.8919C53.7447 18.8971 55.297 16.3606 57.1537 16.3606C57.9755 16.3606 58.5842 16.7579 59.1625 17.6136L59.6191 14.4659H61.6888L60.1061 25.498ZM57.0015 23.3893C58.0059 23.3893 58.6755 22.1364 58.6755 20.3639C58.6755 19.2332 58.2798 18.622 57.5493 18.622C56.6058 18.622 55.9362 19.875 55.9362 21.6474C55.9362 22.7781 56.3014 23.3893 57.0015 23.3893ZM13.1418 25.4674C12.4418 25.7119 11.7113 25.8341 10.9808 25.8341C8.63717 25.8341 7.41969 24.4589 7.41969 21.8002C7.41969 18.7137 8.97197 16.4523 11.0721 16.4523C12.807 16.4523 13.9028 17.7052 13.9028 19.7222C13.9028 20.3639 13.8114 21.0362 13.6288 21.953H9.4894C9.45896 22.1058 9.45896 22.1669 9.45896 22.2281C9.45896 23.2671 10.0981 23.7866 11.3156 23.7866C12.0765 23.7866 12.7462 23.6033 13.4766 23.206L13.1418 25.4674ZM11.9548 20.1195C11.9548 19.9361 11.9852 19.7833 11.9852 19.6611C11.9852 18.9276 11.62 18.4998 10.9808 18.4998C10.3416 18.4998 9.85464 19.0804 9.64159 20.1195H11.9548ZM38.0393 25.4674C37.3392 25.7119 36.6087 25.8341 35.8782 25.8341C33.5346 25.8341 32.3171 24.4589 32.3171 21.8002C32.3171 18.7137 33.8694 16.4523 35.9695 16.4523C37.7045 16.4523 38.8002 17.7052 38.8002 19.7222C38.8002 20.3639 38.7089 21.0362 38.5263 21.953H34.3564C34.326 22.1058 34.326 22.1669 34.326 22.2281C34.326 23.2671 34.9651 23.7866 36.1826 23.7866C36.9435 23.7866 37.6131 23.6033 38.3436 23.206L38.0393 25.4674ZM36.8827 20.1195C36.9131 19.9361 36.9131 19.7833 36.9131 19.6611C36.9131 18.9276 36.5479 18.4998 35.9087 18.4998C35.2695 18.4998 34.7825 19.0804 34.5694 20.1195H36.8827ZM67.2587 25.4674C66.5587 25.7119 65.8282 25.8341 65.0977 25.8341C62.7541 25.8341 61.5366 24.4589 61.5366 21.8002C61.5366 18.7137 63.0889 16.4523 65.2195 16.4523C66.9544 16.4523 68.0501 17.7052 68.0501 19.7222C68.0501 20.3639 67.9588 21.0362 67.7762 21.953H63.6063C63.5759 22.1058 63.5759 22.1669 63.5759 22.2281C63.5759 23.2671 64.215 23.7866 65.4325 23.7866C66.1934 23.7866 66.8631 23.6033 67.5935 23.206L67.2587 25.4674ZM66.0717 20.1195C66.0717 19.9361 66.1021 19.7833 66.1021 19.6611C66.1021 18.9276 65.7369 18.4998 65.0977 18.4998C64.4585 18.4998 63.9715 19.0804 63.7585 20.1195H66.0717ZM6.9327 16.9412C6.53702 16.6662 5.95871 16.4217 5.19779 16.4217C4.34556 16.4217 3.67594 16.6051 3.67594 17.4913C3.67594 19.0804 6.75007 18.4998 6.75007 21.9225C6.75007 25.0396 4.7108 25.8647 2.88458 25.8647C2.06278 25.8647 1.11924 25.5896 0.419189 25.284L0.936618 22.9921C1.36273 23.3893 2.18453 23.6338 2.91502 23.6338C3.58463 23.6338 4.58905 23.4505 4.58905 22.2892C4.58905 20.4862 1.51492 21.1585 1.51492 17.9803C1.51492 15.0771 3.3107 14.2214 5.07604 14.2214C6.05003 14.2214 6.99357 14.3742 7.511 14.7409L6.9327 16.9412ZM19.2597 25.4674C18.8335 25.6813 18.2552 25.8036 17.403 25.8036C15.5768 25.8036 14.4506 23.97 14.4506 21.7391C14.4506 18.8054 16.0942 16.4829 18.4987 16.4829C19.0162 16.4829 19.838 16.6968 20.4771 17.0635L20.0206 19.2027C19.564 18.8971 19.1075 18.7137 18.6205 18.7137C17.4943 18.7137 16.703 19.7527 16.703 21.5863C16.703 22.6559 17.2813 23.5116 18.1944 23.5116C18.7422 23.5116 19.1379 23.3893 19.5945 23.1143L19.2597 25.4674ZM27.1124 23.206C26.9906 23.97 26.9298 24.7645 26.8385 25.5285H24.8296L24.9818 24.0922H24.9514C24.3122 25.0701 23.673 25.7424 22.5164 25.7424C21.2685 25.7424 20.5685 24.3978 20.5685 22.6559C20.5685 22.0447 20.5989 21.7086 20.7206 20.7918L21.2989 16.6356H23.5513L22.9425 20.8223C22.8817 21.2807 22.7903 21.7086 22.7903 22.1975C22.7903 22.717 23.0338 23.2671 23.6426 23.206C24.5557 23.206 25.1036 22.0753 25.2557 20.7612L25.8949 16.6356H28.0559L27.1124 23.206ZM69.3284 25.4063H68.9936V23.9394H68.5066V23.6033H69.8154V23.9394H69.3284V25.4063ZM71.5808 25.4063H71.246V23.9089L70.9416 25.4063H70.6068L70.3024 23.9089V25.4063H69.9676V23.6033H70.485L70.759 25.0396H70.7894L71.0634 23.6033H71.5503C71.5808 23.6033 71.5808 25.4063 71.5808 25.4063Z" fill="#DDE2F6"/>
</g>
<defs>
<clipPath id="clip0_1098_3697">
<rect width="71.1616" height="25.3645" fill="white" transform="translate(0.419189 0.5)"/>
</clipPath>
</defs>
</svg>
