<svg width="63" height="26" viewBox="0 0 63 26" fill="none" xmlns="http://www.w3.org/2000/svg">
<g clip-path="url(#clip0_1098_3700)">
<path d="M33.3193 11.5482H34.4543L32.8063 16.8424H31.5625L33.3193 11.5482Z" fill="#DDE2F6"/>
<path d="M33.3193 11.5482H34.4543L32.8063 16.8424H31.5625L33.3193 11.5482Z" fill="#DDE2F6"/>
<path d="M34.7892 11.5482H33.7012L35.2809 16.8424H36.4734L34.7892 11.5482Z" fill="#DDE2F6"/>
<path d="M34.7892 11.5482H33.7012L35.2809 16.8424H36.4734L34.7892 11.5482Z" fill="#DDE2F6"/>
<path d="M35.6689 14.851H32.5034V15.9916H35.6689V14.851Z" fill="#DDE2F6"/>
<path d="M41.6977 15.9714C41.322 16.376 40.8249 16.6633 40.2724 16.7943C39.72 16.9253 39.1381 16.8942 38.6048 16.7053C38.0714 16.5164 37.6115 16.1781 37.2868 15.7361C36.9621 15.2942 36.7876 14.7689 36.7866 14.2311C36.7857 13.6933 36.9584 13.1673 37.2818 12.7245C37.6053 12.2816 38.0639 11.942 38.5966 11.7516C39.1294 11.5611 39.7112 11.5281 40.264 11.6579C40.8171 11.7874 41.1177 12.0301 41.5015 12.3214L40.7007 13.3021C40.5014 13.0889 40.2384 12.938 39.9462 12.8695C39.6537 12.801 39.3465 12.8184 39.0646 12.919C38.7831 13.0198 38.5406 13.1991 38.3698 13.4331C38.199 13.6671 38.1077 13.9451 38.108 14.2295C38.1086 14.514 38.2009 14.7913 38.3723 15.025C38.5441 15.2587 38.7871 15.4374 39.069 15.5373C39.3509 15.6372 39.6584 15.6537 39.9506 15.5843C40.2424 15.5149 40.6726 15.2883 40.8709 15.0745L41.6977 15.9717V15.9714Z" fill="#DDE2F6"/>
<path d="M46.9218 15.9404C46.5461 16.345 46.049 16.6323 45.4966 16.7633C44.9441 16.8943 44.3623 16.8632 43.8289 16.6743C43.2955 16.4854 42.8357 16.1471 42.511 15.7051C42.1862 15.2632 42.0117 14.7379 42.0107 14.2001C42.0098 13.6623 42.1825 13.1363 42.5059 12.6935C42.8294 12.2506 43.288 11.911 43.8208 11.7206C44.3535 11.5301 44.9354 11.4971 45.4881 11.6269C46.0412 11.7564 46.3418 11.9991 46.7257 12.2904L45.9248 13.2711C45.7256 13.0579 45.4625 12.9069 45.1703 12.8385C44.8778 12.77 44.5706 12.7874 44.2887 12.888C44.0072 12.9888 43.7648 13.1681 43.594 13.4021C43.4232 13.6361 43.3318 13.9141 43.3321 14.1985C43.3327 14.483 43.425 14.7603 43.5965 14.994C43.7682 15.2277 44.0113 15.4064 44.2931 15.5063C44.575 15.6062 44.8825 15.6227 45.1747 15.5533C45.4665 15.4839 45.8967 15.2573 46.095 15.0435L46.9218 15.9407V15.9404Z" fill="#DDE2F6"/>
<path d="M6.06689 8.56079V16.979H8.82196V12.0166H9.01872L10.5503 16.979H12.6122L14.1863 12.0166H14.3831V16.979H17.1122V8.56079H14.0665C14.0665 8.56079 13.1768 8.56079 12.8859 9.5651C12.595 10.5694 11.7053 13.54 11.7053 13.54H11.4657C11.4657 13.54 10.4903 9.96502 10.3704 9.65878C10.2506 9.35223 10.0539 8.56079 9.01872 8.56079H6.06689Z" fill="#DDE2F6"/>
<path fill-rule="evenodd" clip-rule="evenodd" d="M27.7071 8.46716H21.8647C22.004 10.3382 23.6019 11.9401 25.2564 11.9401H30.7262C31.0418 10.3849 29.9551 8.46716 27.7071 8.46716Z" fill="#DDE2F6"/>
<path d="M22.0186 16.8792V12.4614C22.0186 12.4614 30.617 12.4378 30.6598 12.4614C30.703 12.4854 30.3176 13.1595 29.9838 13.4745C29.65 13.7894 29.0084 14.0957 29.0084 14.0957L30.6595 16.8789H27.8447L26.3816 14.368H24.7049V16.8789H22.0183L22.0186 16.8792Z" fill="#DDE2F6"/>
<path d="M20.8487 8.43616H18.1108V16.8457H20.8487V8.43616Z" fill="#DDE2F6"/>
<path d="M59.4977 17.2439V12.5911H57.7146V11.3618H62.7511V12.5911H60.9211V17.2439H59.4977Z" fill="#DDE2F6"/>
<path fill-rule="evenodd" clip-rule="evenodd" d="M55.2082 11.6418H51.3955C51.4862 12.8628 52.5292 13.9082 53.6088 13.9082H57.1784C57.3843 12.8933 56.6754 11.6418 55.2082 11.6418Z" fill="#DDE2F6"/>
<path d="M51.802 16.8707V14.132H57.2139C57.0822 14.498 56.6195 14.8944 56.6195 14.8944C56.6195 14.8944 56.1994 15.2153 55.7123 15.2679H53.1315V16.8707H51.802Z" fill="#DDE2F6"/>
<path d="M50.8636 11.6418V12.7156H48.7676V13.6648H50.4256V14.7385H48.7676V15.8278H50.8636V16.8392H47.5476V11.6418H50.8636Z" fill="#DDE2F6"/>
<path d="M59.644 18.2706H21.9897L23.2254 21.3206H61.6151C61.6151 21.3206 61.7246 20.1868 61.2085 19.3885C60.692 18.5903 60.254 18.2706 59.644 18.2706Z" fill="#DDE2F6"/>
<path d="M24.416 19.7267C23.0002 22.0649 20.8639 23.8861 18.3244 24.92C15.7849 25.9539 12.9782 26.145 10.3207 25.465C7.66357 24.7849 5.29766 23.2702 3.57493 21.1455C1.85251 19.0208 0.8646 16.4 0.758552 13.6725C0.652504 10.9449 1.43394 8.25599 2.9865 6.00555C4.53937 3.7548 6.78046 2.06269 9.37692 1.18069C11.9734 0.298379 14.7866 0.273481 17.3987 1.1088C20.0108 1.94443 23.0377 3.85626 24.9303 7.4602H21.5615C20.3236 5.73323 18.5587 4.44976 16.5288 3.80055C14.4991 3.15134 12.3128 3.17095 10.2954 3.85626C8.27765 4.54188 6.53614 5.85679 5.32957 7.60554C4.123 9.35429 3.5158 11.4438 3.59808 13.5632C3.68035 15.6827 4.44803 17.7193 5.78692 19.3703C7.12551 21.0214 8.96399 22.1984 11.029 22.7268C13.0939 23.2553 15.2749 23.1068 17.2483 22.3036C19.2216 21.5003 20.8817 20.0849 21.9819 18.268L24.4164 19.727L24.416 19.7267Z" fill="#DDE2F6"/>
</g>
<defs>
<clipPath id="clip0_1098_3700">
<rect width="62.0022" height="25.3645" fill="white" transform="translate(0.749023 0.5)"/>
</clipPath>
</defs>
</svg>
