<svg width="61" height="26" viewBox="0 0 61 26" fill="none" xmlns="http://www.w3.org/2000/svg">
<g clip-path="url(#clip0_1098_3681)">
<path d="M24.5244 14.0429L21.53 21.986L21.2091 20.3699C20.4605 18.3902 18.8399 16.3135 16.9561 15.4651L19.7037 25.6707H22.9531L27.782 14.0267H24.5244V14.0429Z" fill="#DDE2F6"/>
<path d="M27.0991 25.6949L29.0159 14.0267H32.0843L30.1676 25.6949H27.0991Z" fill="#DDE2F6"/>
<path d="M41.2897 14.318C40.6809 14.0836 39.7267 13.8251 38.5421 13.8251C35.5065 13.8251 33.3759 15.4088 33.3594 17.6714C33.3429 19.3521 34.8813 20.2814 36.0412 20.8389C37.2423 21.4126 37.6371 21.7762 37.6371 22.2853C37.6289 23.0691 36.6829 23.4246 35.8027 23.4246C34.5769 23.4246 33.927 23.2469 32.9152 22.8186L32.5203 22.6328L32.0925 25.2427C32.8082 25.566 34.1327 25.8488 35.5147 25.8649C38.7313 25.8649 40.829 24.2973 40.8537 21.8813C40.8701 20.548 40.0475 19.546 38.2788 18.7137C37.2094 18.1724 36.5513 17.8168 36.5595 17.2673C36.5595 16.7825 37.1107 16.2654 38.3199 16.2654C39.3236 16.2492 40.0475 16.4755 40.6151 16.7179L40.8866 16.8552L41.2897 14.318Z" fill="#DDE2F6"/>
<path d="M49.1543 14.0432H46.7851C46.053 14.0432 45.5018 14.2452 45.1728 15.0129L40.6235 25.7033H43.8401C43.8401 25.7033 44.3666 24.265 44.49 23.9498C44.8437 23.9498 47.9697 23.9579 48.414 23.9579C48.5127 24.3619 48.7842 25.7033 48.7842 25.7033H51.6387L49.1543 14.0432ZM45.3702 21.558C45.6252 20.8874 46.5877 18.2935 46.5877 18.2935C46.5712 18.3258 46.8427 17.6229 46.999 17.1784L47.2047 18.1804C47.2047 18.1804 47.797 20.9682 47.9204 21.5499C47.4433 21.558 45.9707 21.558 45.3702 21.558Z" fill="#DDE2F6"/>
<path d="M18.7412 14.0349H13.7971L13.7642 14.2369C17.6059 15.2066 20.1479 17.5741 21.2009 20.3781L20.1314 15.0126C19.9504 14.2773 19.4075 14.0592 18.7412 14.0349Z" fill="#DDE2F6"/>
<path d="M4.5176 11.2147H2.56793L0.305664 1.22724L2.46922 0.871704L4.01579 8.6855L7.94802 0.97675H10.0211L4.5176 11.2147Z" fill="#DDE2F6"/>
<path d="M14.6936 7.95057H10.0292C9.8976 9.34041 10.5557 9.94644 11.6745 9.94644C12.6041 9.94644 13.4267 9.60707 14.307 9.0576L14.2987 10.4474C13.435 10.9807 12.4313 11.3201 11.255 11.3201C9.22303 11.3201 7.88212 10.1808 8.28522 7.61119C8.64718 5.29211 10.2842 3.88611 12.1763 3.88611C14.3563 3.88611 15.0803 5.49412 14.7676 7.52231C14.7512 7.66776 14.7018 7.84553 14.6936 7.95057ZM11.946 5.11434C11.2221 5.11434 10.5475 5.67189 10.2349 6.84355H13.1224C13.1717 5.73653 12.818 5.11434 11.946 5.11434Z" fill="#DDE2F6"/>
<path d="M17.7294 7.07767L17.0877 11.1664H15.2861L16.4049 4.03134H17.9433V5.46158C18.552 4.63737 19.3829 3.94245 20.5264 3.87781L20.5346 5.63935C19.3829 5.72015 18.3628 6.31002 17.7294 7.07767Z" fill="#DDE2F6"/>
<path d="M20.5015 11.1667L21.6203 4.03162H23.4219L22.3113 11.1667H20.5015ZM22.7226 2.83571C22.1221 2.83571 21.7025 2.42361 21.8012 1.83374C21.9 1.2277 22.4429 0.799438 23.0434 0.799438C23.644 0.799438 24.0471 1.2277 23.9483 1.83374C23.8579 2.42361 23.3149 2.83571 22.7226 2.83571Z" fill="#DDE2F6"/>
<path d="M28.4238 2.084C27.8068 2.084 27.4366 2.35065 27.3379 2.98901L27.1734 4.03947H28.5554V5.48587H26.943L26.0546 11.1664H24.2612L25.1497 5.47779H24.0967L24.327 4.03139H25.38L25.5692 2.80316C25.816 1.21939 26.9348 0.629517 28.4238 0.629517C28.7364 0.629517 28.975 0.661838 29.1559 0.68608L29.1724 2.13248C28.9914 2.11632 28.7282 2.084 28.4238 2.084Z" fill="#DDE2F6"/>
<path d="M28.4402 11.1667L29.559 4.03162H31.3606L30.25 11.1667H28.4402ZM30.6696 2.83571C30.069 2.83571 29.6495 2.42361 29.74 1.83374C29.8387 1.2277 30.3816 0.799438 30.9822 0.799438C31.5827 0.799438 31.9858 1.2277 31.8871 1.83374C31.7966 2.42361 31.2536 2.83571 30.6696 2.83571Z" fill="#DDE2F6"/>
<path d="M38.3694 7.95057H33.705C33.5816 9.34041 34.2315 9.94644 35.3503 9.94644C36.2799 9.94644 37.1025 9.60707 37.9827 9.0576L37.9745 10.4474C37.1107 10.9807 36.1071 11.3201 34.9307 11.3201C32.8988 11.3201 31.5579 10.1808 31.961 7.61119C32.323 5.29211 33.96 3.88611 35.8521 3.88611C38.0321 3.88611 38.756 5.49412 38.4434 7.52231C38.427 7.66776 38.3776 7.84553 38.3694 7.95057ZM35.6218 5.11434C34.8978 5.11434 34.2233 5.67189 33.9107 6.84355H36.7981C36.8475 5.73653 36.4938 5.11434 35.6218 5.11434Z" fill="#DDE2F6"/>
<path d="M43.7083 11.1663L43.7165 10.1724C43.1078 10.7785 42.318 11.3118 41.3144 11.3118C39.7925 11.3118 38.7478 10.2047 39.1262 7.79677C39.5457 5.1383 41.2157 3.95855 42.9021 3.95855C43.5931 3.95855 44.1361 4.07976 44.5474 4.22521L45.0904 0.782938L46.9413 0.500122L45.2713 11.1663H43.7083ZM44.3171 5.68777C43.8975 5.47768 43.5685 5.38071 42.9515 5.38071C42.0054 5.38071 41.191 6.13219 40.9525 7.6998C40.7386 9.08964 41.2322 9.73607 42.0301 9.73607C42.6882 9.73607 43.2641 9.34821 43.8399 8.75834L44.3171 5.68777Z" fill="#DDE2F6"/>
<path d="M50.7912 11.2392C49.9356 11.2392 49.2364 11.1018 48.5947 10.8837L49.7793 3.30421L51.1778 3.09412L50.6678 6.37478C51.0791 6.01924 51.6467 5.65562 52.3378 5.65562C53.4977 5.65562 54.2792 6.50407 53.9913 8.32217C53.6787 10.31 52.4282 11.2392 50.7912 11.2392ZM51.803 6.83536C51.3506 6.83536 50.8899 7.13434 50.4868 7.53836L50.1002 9.98674C50.3716 10.0837 50.5526 10.1322 50.9393 10.1322C51.803 10.1322 52.4118 9.61504 52.601 8.38681C52.7655 7.35251 52.4118 6.83536 51.803 6.83536Z" fill="#DDE2F6"/>
<path d="M57.2162 11.4651C56.517 12.7984 55.826 13.2105 54.7648 13.2105C54.5262 13.2105 54.3946 13.1863 54.2712 13.1539L54.2629 12.0469C54.4357 12.0954 54.6249 12.1277 54.8881 12.1277C55.283 12.1277 55.6368 11.9499 55.8671 11.554L56.0481 11.1985L54.8881 5.87345L56.3442 5.69568L57.0188 9.54197L58.8368 5.7684H60.1942L57.2162 11.4651Z" fill="#DDE2F6"/>
</g>
<defs>
<clipPath id="clip0_1098_3681">
<rect width="59.8885" height="25.3645" fill="white" transform="translate(0.305664 0.5)"/>
</clipPath>
</defs>
</svg>
