<svg width="20" height="22" viewBox="0 0 20 22" fill="none" xmlns="http://www.w3.org/2000/svg">
<path d="M12.291 21.9999C13.0517 21.9999 13.7151 21.3585 13.7151 20.6229V17.4069H14.666C15.2366 17.4069 15.6169 17.039 15.6169 16.4874V7.30196H4.21503V16.4874C4.21503 17.0391 4.59539 17.4069 5.16594 17.4069H6.11693V20.6229C6.11693 21.3585 6.78017 22 7.54105 22C8.30171 22 8.96503 21.3585 8.96503 20.6229V17.4069H10.8669V20.6229C10.8668 21.3585 11.5302 21.9999 12.291 21.9999ZM17.992 16.4874C18.7528 16.4874 19.416 15.846 19.416 15.1104V8.67843C19.416 7.94674 18.7528 7.30196 17.992 7.30196C17.2312 7.30196 16.5679 7.94674 16.5679 8.67843V15.1104C16.5679 15.846 17.2312 16.4874 17.992 16.4874ZM1.83999 16.4874C2.6008 16.4874 3.26412 15.846 3.26412 15.1104V8.67843C3.26412 7.94674 2.60087 7.30196 1.83999 7.30196C1.07926 7.30196 0.416016 7.94674 0.416016 8.67843V15.1104C0.416016 15.846 1.07926 16.4874 1.83999 16.4874ZM14.4758 0.138748C14.2857 -0.0462493 14.0026 -0.0462493 13.8125 0.138748L12.5371 1.36788L12.4783 1.4247C11.722 1.05852 10.8741 0.875654 9.92991 0.873892L9.91609 0.873745H9.91594L9.90197 0.873892C8.95782 0.875654 8.10993 1.05852 7.35376 1.4247L7.29477 1.36788L6.01944 0.138748C5.82919 -0.0462493 5.5463 -0.0462493 5.3562 0.138748C5.16594 0.322718 5.16594 0.595736 5.3562 0.779558L6.58991 1.97272C6.19239 2.22936 5.83192 2.54342 5.51844 2.90262C4.76796 3.76279 4.28928 4.88224 4.22346 6.09515C4.22285 6.10778 4.22156 6.12026 4.22095 6.13288C4.21696 6.21581 4.21498 6.29881 4.21503 6.38182H15.6169C15.6169 6.2985 15.6149 6.21547 15.611 6.13288C15.6104 6.12026 15.6091 6.10778 15.6083 6.09515C15.5427 4.88224 15.0638 3.76271 14.3134 2.9027C14 2.54349 13.6394 2.22944 13.2419 1.97279L14.4758 0.779632C14.666 0.595735 14.666 0.322718 14.4758 0.138748ZM7.53923 4.77638C7.3503 4.77638 7.16911 4.70381 7.03551 4.57463C6.90192 4.44545 6.82686 4.27025 6.82686 4.08756C6.82686 3.90487 6.90192 3.72967 7.03551 3.60049C7.16911 3.47131 7.3503 3.39874 7.53923 3.39874C7.72816 3.39874 7.90936 3.47131 8.04295 3.60049C8.17655 3.72967 8.2516 3.90487 8.2516 4.08756C8.2516 4.27025 8.17655 4.44545 8.04295 4.57463C7.90936 4.70381 7.72816 4.77638 7.53923 4.77638ZM12.2927 4.77638C12.1038 4.77638 11.9226 4.70381 11.789 4.57463C11.6554 4.44545 11.5804 4.27025 11.5804 4.08756C11.5804 3.90487 11.6554 3.72967 11.789 3.60049C11.9226 3.47131 12.1038 3.39874 12.2927 3.39874C12.4817 3.39874 12.6628 3.47131 12.7964 3.60049C12.93 3.72967 13.0051 3.90487 13.0051 4.08756C13.0051 4.27025 12.93 4.44545 12.7964 4.57463C12.6628 4.70381 12.4817 4.77638 12.2927 4.77638Z" fill="#505A8A"/>
</svg>
