<svg width="40" height="41" viewBox="0 0 40 41" fill="none" xmlns="http://www.w3.org/2000/svg">
<path d="M14.8239 34.9431C15.2356 34.1199 14.9019 33.1187 14.0786 32.7071C13.2553 32.2954 12.2541 32.6291 11.8425 33.4524L10.1758 36.7858C9.76418 37.6091 10.0979 38.6102 10.9212 39.0218C11.7445 39.4335 12.7456 39.0998 13.1573 38.2765L14.8239 34.9431Z" fill="#1E2136"/>
<path d="M25.1759 34.9431C24.7643 34.1199 25.098 33.1187 25.9213 32.7071C26.7446 32.2954 27.7457 32.6291 28.1573 33.4524L29.824 36.7858C30.2357 37.6091 29.9019 38.6102 29.0787 39.0218C28.2554 39.4335 27.2542 39.0998 26.8426 38.2765L25.1759 34.9431Z" fill="#1E2136"/>
<path fill-rule="evenodd" clip-rule="evenodd" d="M18.3333 4.19792C18.3333 3.27744 19.0795 2.53125 20 2.53125C20.9205 2.53125 21.6667 3.27744 21.6667 4.19792V5.86458H30C32.7614 5.86458 35 8.10316 35 10.8646V24.1979C35 26.9593 32.7614 29.1979 30 29.1979H10C7.23858 29.1979 5 26.9593 5 24.1979V10.8646C5 8.10316 7.23858 5.86458 10 5.86458H18.3333V4.19792Z" fill="url(#paint0_linear_1051_4991)" fill-opacity="0.5"/>
<path fill-rule="evenodd" clip-rule="evenodd" d="M29.3745 11.2298C30.0933 11.8048 30.2098 12.8536 29.6348 13.5724L22.9681 21.9057C22.4281 22.5808 21.4615 22.7309 20.7422 22.2513L16.879 19.6759L12.8452 23.7097C12.1943 24.3606 11.139 24.3606 10.4882 23.7097C9.83728 23.0589 9.83728 22.0036 10.4882 21.3527L15.4882 16.3527C16.0499 15.7909 16.9301 15.7038 17.5912 16.1445L21.3198 18.6302L27.0319 11.4901C27.6069 10.7713 28.6557 10.6548 29.3745 11.2298Z" fill="#1E2136"/>
<defs>
<linearGradient id="paint0_linear_1051_4991" x1="20" y1="2.53125" x2="20" y2="29.1979" gradientUnits="userSpaceOnUse">
<stop stop-color="#ADB1B5"/>
<stop offset="1" stop-color="#8D9298"/>
</linearGradient>
</defs>
</svg>
