<svg xmlns="http://www.w3.org/2000/svg" style="display: none;">
    <symbol id="apple" viewBox="0 0 24 24">
        
<path d="M12.291 21.9999C13.0517 21.9999 13.7151 21.3585 13.7151 20.6229V17.4069H14.666C15.2366 17.4069 15.6169 17.039 15.6169 16.4874V7.30196H4.21503V16.4874C4.21503 17.0391 4.59539 17.4069 5.16594 17.4069H6.11693V20.6229C6.11693 21.3585 6.78017 22 7.54105 22C8.30171 22 8.96503 21.3585 8.96503 20.6229V17.4069H10.8669V20.6229C10.8668 21.3585 11.5302 21.9999 12.291 21.9999ZM17.992 16.4874C18.7528 16.4874 19.416 15.846 19.416 15.1104V8.67843C19.416 7.94674 18.7528 7.30196 17.992 7.30196C17.2312 7.30196 16.5679 7.94674 16.5679 8.67843V15.1104C16.5679 15.846 17.2312 16.4874 17.992 16.4874ZM1.83999 16.4874C2.6008 16.4874 3.26412 15.846 3.26412 15.1104V8.67843C3.26412 7.94674 2.60087 7.30196 1.83999 7.30196C1.07926 7.30196 0.416016 7.94674 0.416016 8.67843V15.1104C0.416016 15.846 1.07926 16.4874 1.83999 16.4874ZM14.4758 0.138748C14.2857 -0.0462493 14.0026 -0.0462493 13.8125 0.138748L12.5371 1.36788L12.4783 1.4247C11.722 1.05852 10.8741 0.875654 9.92991 0.873892L9.91609 0.873745H9.91594L9.90197 0.873892C8.95782 0.875654 8.10993 1.05852 7.35376 1.4247L7.29477 1.36788L6.01944 0.138748C5.82919 -0.0462493 5.5463 -0.0462493 5.3562 0.138748C5.16594 0.322718 5.16594 0.595736 5.3562 0.779558L6.58991 1.97272C6.19239 2.22936 5.83192 2.54342 5.51844 2.90262C4.76796 3.76279 4.28928 4.88224 4.22346 6.09515C4.22285 6.10778 4.22156 6.12026 4.22095 6.13288C4.21696 6.21581 4.21498 6.29881 4.21503 6.38182H15.6169C15.6169 6.2985 15.6149 6.21547 15.611 6.13288C15.6104 6.12026 15.6091 6.10778 15.6083 6.09515C15.5427 4.88224 15.0638 3.76271 14.3134 2.9027C14 2.54349 13.6394 2.22944 13.2419 1.97279L14.4758 0.779632C14.666 0.595735 14.666 0.322718 14.4758 0.138748ZM7.53923 4.77638C7.3503 4.77638 7.16911 4.70381 7.03551 4.57463C6.90192 4.44545 6.82686 4.27025 6.82686 4.08756C6.82686 3.90487 6.90192 3.72967 7.03551 3.60049C7.16911 3.47131 7.3503 3.39874 7.53923 3.39874C7.72816 3.39874 7.90936 3.47131 8.04295 3.60049C8.17655 3.72967 8.2516 3.90487 8.2516 4.08756C8.2516 4.27025 8.17655 4.44545 8.04295 4.57463C7.90936 4.70381 7.72816 4.77638 7.53923 4.77638ZM12.2927 4.77638C12.1038 4.77638 11.9226 4.70381 11.789 4.57463C11.6554 4.44545 11.5804 4.27025 11.5804 4.08756C11.5804 3.90487 11.6554 3.72967 11.789 3.60049C11.9226 3.47131 12.1038 3.39874 12.2927 3.39874C12.4817 3.39874 12.6628 3.47131 12.7964 3.60049C12.93 3.72967 13.0051 3.90487 13.0051 4.08756C13.0051 4.27025 12.93 4.44545 12.7964 4.57463C12.6628 4.70381 12.4817 4.77638 12.2927 4.77638Z" />


    </symbol>
    <symbol id="android" viewBox="0 0 24 24">
        
<path d="M14.9974 21.1173C13.8344 22.2783 12.5645 22.095 11.3422 21.5451C10.0486 20.9829 8.86179 20.9585 7.49699 21.5451C5.78802 22.3027 4.88607 22.0828 3.86544 21.1173C-1.92605 14.9703 -1.07157 5.60929 5.5032 5.26711C7.10535 5.35266 8.22093 6.17144 9.15848 6.24477C10.5589 5.95147 11.8999 5.10824 13.3953 5.21823C15.1873 5.36488 16.5403 6.09812 17.4303 7.41795C13.7276 9.70322 14.6058 14.7259 18 16.1313C17.3235 17.9644 16.4453 19.7853 14.9856 21.1296L14.9974 21.1173ZM9.0398 5.19379C8.86179 2.46858 11.0099 0.219972 13.4784 0C13.8225 3.15294 10.7013 5.49931 9.0398 5.19379Z" />


    </symbol>
    <symbol id="pdf" viewBox="0 0 24 24">
        
<path d="M6.15411 3.65C6.15411 3.0701 6.62315 2.6 7.20173 2.6H16.81C17.0879 2.6 17.3544 2.71062 17.5508 2.90754L20.5139 5.87739C20.7104 6.0743 20.8208 6.34137 20.8208 6.61985V18.35C20.8208 18.9299 20.3517 19.4 19.7732 19.4H7.20173C6.62315 19.4 6.15411 18.9299 6.15411 18.35V17.3C6.15411 16.7201 5.68508 16.25 5.10649 16.25C4.52791 16.25 4.05887 16.7201 4.05887 17.3V18.35C4.05887 20.0897 5.46598 21.5 7.20173 21.5H19.7732C21.5089 21.5 22.916 20.0897 22.916 18.35V6.61985C22.916 5.78442 22.5849 4.9832 21.9955 4.39246L19.0324 1.42261C18.443 0.831874 17.6436 0.5 16.81 0.5H7.20173C5.46598 0.5 4.05887 1.9103 4.05887 3.65C4.05887 4.2299 4.52791 4.7 5.10649 4.7C5.68508 4.7 6.15411 4.2299 6.15411 3.65Z" />
<path d="M0.916016 7.85C0.916016 7.2701 1.38505 6.8 1.96363 6.8H3.53506C4.98152 6.8 6.15411 7.97525 6.15411 9.425C6.15411 10.8747 4.98152 12.05 3.53506 12.05H3.01125V13.1C3.01125 13.6799 2.54222 14.15 1.96363 14.15C1.38505 14.15 0.916016 13.6799 0.916016 13.1V7.85ZM3.01125 9.95H3.53506C3.82436 9.95 4.05887 9.71495 4.05887 9.425C4.05887 9.13505 3.82436 8.9 3.53506 8.9H3.01125V9.95Z" />
<path d="M7.20173 7.85C7.20173 7.2701 7.67077 6.8 8.24935 6.8H9.29697C11.0327 6.8 12.4398 8.2103 12.4398 9.95V11C12.4398 12.7397 11.0327 14.15 9.29697 14.15H8.24935C7.67077 14.15 7.20173 13.6799 7.20173 13.1V7.85ZM9.29697 8.9V12.05C9.87555 12.05 10.3446 11.5799 10.3446 11V9.95C10.3446 9.3701 9.87555 8.9 9.29697 8.9Z" />
<path d="M17.6779 6.8H14.5351C13.9565 6.8 13.4874 7.2701 13.4874 7.85V13.1C13.4874 13.6799 13.9565 14.15 14.5351 14.15C15.1136 14.15 15.5827 13.6799 15.5827 13.1V12.05H16.6303C17.2089 12.05 17.6779 11.5799 17.6779 11C17.6779 10.4201 17.2089 9.95 16.6303 9.95H15.5827V8.9H17.6779C18.2565 8.9 18.7255 8.4299 18.7255 7.85C18.7255 7.2701 18.2565 6.8 17.6779 6.8Z" />


    </symbol>
        
    <symbol id="arrow" viewBox="0 0 24 24">
        <path d="M0.292893 0.292893C0.683417 -0.0976311 1.31658 -0.0976311 1.70711 0.292893L6 4.58579L10.2929 0.292893C10.6834 -0.0976311 11.3166 -0.0976311 11.7071 0.292893C12.0976 0.683417 12.0976 1.31658 11.7071 1.70711L6.70711 6.70711C6.31658 7.09763 5.68342 7.09763 5.29289 6.70711L0.292893 1.70711C-0.0976311 1.31658 -0.0976311 0.683417 0.292893 0.292893Z" />
    </symbol>

    <symbol id="burger" viewBox="0 0 18 12">
        <path fill-rule="evenodd" clip-rule="evenodd" d="M0 0.75C0 0.551088 0.0790175 0.360322 0.21967 0.21967C0.360322 0.0790175 0.551088 0 0.75 0H17.25C17.4489 0 17.6397 0.0790175 17.7803 0.21967C17.921 0.360322 18 0.551088 18 0.75C18 0.948912 17.921 1.13968 17.7803 1.28033C17.6397 1.42098 17.4489 1.5 17.25 1.5H0.75C0.551088 1.5 0.360322 1.42098 0.21967 1.28033C0.0790175 1.13968 0 0.948912 0 0.75ZM0 6C0 5.80109 0.0790175 5.61032 0.21967 5.46967C0.360322 5.32902 0.551088 5.25 0.75 5.25H17.25C17.4489 5.25 17.6397 5.32902 17.7803 5.46967C17.921 5.61032 18 5.80109 18 6C18 6.19891 17.921 6.38968 17.7803 6.53033C17.6397 6.67098 17.4489 6.75 17.25 6.75H0.75C0.551088 6.75 0.360322 6.67098 0.21967 6.53033C0.0790175 6.38968 0 6.19891 0 6ZM0 11.25C0 11.0511 0.0790175 10.8603 0.21967 10.7197C0.360322 10.579 0.551088 10.5 0.75 10.5H17.25C17.4489 10.5 17.6397 10.579 17.7803 10.7197C17.921 10.8603 18 11.0511 18 11.25C18 11.4489 17.921 11.6397 17.7803 11.7803C17.6397 11.921 17.4489 12 17.25 12H0.75C0.551088 12 0.360322 11.921 0.21967 11.7803C0.0790175 11.6397 0 11.4489 0 11.25Z" />
    </symbol>

    <symbol id="close" viewBox="0 0 15 13">
        <path d="M7.20711 0.792893C7.59763 1.18342 7.59763 1.81658 7.20711 2.20711L3.91421 5.5H13.5C14.0523 5.5 14.5 5.94772 14.5 6.5C14.5 7.05228 14.0523 7.5 13.5 7.5H3.91421L7.20711 10.7929C7.59763 11.1834 7.59763 11.8166 7.20711 12.2071C6.81658 12.5976 6.18342 12.5976 5.79289 12.2071L0.792893 7.20711C0.402369 6.81658 0.402369 6.18342 0.792893 5.79289L5.79289 0.792893C6.18342 0.402369 6.81658 0.402369 7.20711 0.792893Z"/>
    </symbol>

    <symbol id="" viewBox="0 0 24 24">
    
    </symbol>

</svg>