<svg width="40" height="41" viewBox="0 0 40 41" fill="none" xmlns="http://www.w3.org/2000/svg">
<path fill-rule="evenodd" clip-rule="evenodd" d="M5.18529 22.9125C5.45229 19.2185 8.35626 16.3504 12.0525 16.1155C14.263 15.975 16.9658 15.8645 20 15.8645C23.0342 15.8645 25.737 15.975 27.9475 16.1155C31.6437 16.3504 34.5477 19.2185 34.8147 22.9125C34.9225 24.4035 35 26.0061 35 27.5312C35 29.0562 34.9225 30.6589 34.8147 32.1498C34.5477 35.8439 31.6437 38.7119 27.9475 38.9469C25.737 39.0874 23.0342 39.1978 20 39.1978C16.9658 39.1978 14.263 39.0874 12.0525 38.9469C8.35627 38.7119 5.45229 35.8439 5.18529 32.1498C5.07753 30.6589 5 29.0562 5 27.5312C5 26.0061 5.07753 24.4035 5.18529 22.9125Z" fill="url(#paint0_linear_1051_4979)" fill-opacity="0.5"/>
<path fill-rule="evenodd" clip-rule="evenodd" d="M21.6667 28.752C22.6631 28.1756 23.3334 27.0984 23.3334 25.8646C23.3334 24.0236 21.841 22.5312 20.0001 22.5312C18.1591 22.5312 16.6667 24.0236 16.6667 25.8646C16.6667 27.0984 17.3371 28.1756 18.3334 28.752V30.8646C18.3334 31.7851 19.0796 32.5312 20.0001 32.5312C20.9206 32.5312 21.6667 31.7851 21.6667 30.8646V28.752Z" fill="#1E2136"/>
<path fill-rule="evenodd" clip-rule="evenodd" d="M11.6667 10.8646C11.6667 6.26221 15.3977 2.53125 20.0001 2.53125C24.6025 2.53125 28.3334 6.26221 28.3334 10.8646V17.5312C28.3334 18.4517 27.5872 19.1979 26.6667 19.1979C25.7463 19.1979 25.0001 18.4517 25.0001 17.5312V10.8646C25.0001 8.10316 22.7615 5.86458 20.0001 5.86458C17.2387 5.86458 15.0001 8.10316 15.0001 10.8646V17.5312C15.0001 18.4517 14.2539 19.1979 13.3334 19.1979C12.4129 19.1979 11.6667 18.4517 11.6667 17.5312V10.8646Z" fill="#1E2136"/>
<defs>
<linearGradient id="paint0_linear_1051_4979" x1="20" y1="15.8645" x2="20" y2="39.1978" gradientUnits="userSpaceOnUse">
<stop stop-color="#ADB1B5"/>
<stop offset="1" stop-color="#8D9298"/>
</linearGradient>
</defs>
</svg>
