<svg width="94" height="20" viewBox="0 0 94 20" fill="none" xmlns="http://www.w3.org/2000/svg">
<g clip-path="url(#clip0_1583_494)">
<path d="M23.0917 19.773V5.23685C23.0917 4.96366 23.3134 4.74013 23.5844 4.74013H26.6957C26.9209 4.74013 27.118 4.89625 27.1743 5.11977L27.477 6.36866C27.8923 5.81872 28.3393 5.40361 28.8215 5.12687C29.3037 4.85012 29.7753 4.67627 30.2364 4.59822C30.6974 4.52371 31.0881 4.48468 31.4119 4.48468C32.2425 4.48468 33.0062 4.63724 33.7031 4.94237C34.4 5.2475 34.9666 5.79744 35.3995 6.59573C35.8148 6.02451 36.2653 5.59165 36.7581 5.29717C37.2473 5.00269 37.7471 4.79335 38.2574 4.66918C38.7677 4.545 39.2745 4.48468 39.7849 4.48468C40.9745 4.48468 41.9248 4.72594 42.6427 5.21202C43.3607 5.69809 43.8887 6.38285 44.2265 7.2663C44.5644 8.14975 44.7369 9.17157 44.7369 10.3318V19.773H40.2671V11.3287C40.2671 11.0626 40.2495 10.7682 40.2107 10.4453C40.172 10.1224 40.0911 9.82085 39.9714 9.54766C39.8482 9.27091 39.6652 9.04384 39.4188 8.8629C39.1725 8.68195 38.8346 8.59325 38.4017 8.59325C37.9688 8.59325 37.6098 8.6855 37.3282 8.8629C37.0467 9.04384 36.8179 9.28156 36.649 9.57604C36.48 9.87052 36.3604 10.2005 36.2935 10.5588C36.2266 10.9207 36.1949 11.2826 36.1949 11.641V19.7694H31.7251V11.2968C31.7251 11.0485 31.7005 10.7682 31.6547 10.4559C31.609 10.1437 31.521 9.84214 31.4013 9.5583C31.2781 9.27446 31.0916 9.04029 30.8347 8.85935C30.5813 8.6784 30.2152 8.5897 29.7436 8.5897C29.1031 8.5897 28.6244 8.77065 28.3147 9.13254C28.005 9.49444 27.8043 9.9202 27.7199 10.4169C27.6354 10.9101 27.5932 11.3678 27.5932 11.7864V19.773H23.0952H23.0917Z" fill="#1E2136"/>
<path d="M54.6445 20C53.1557 20 51.8289 19.6948 50.6674 19.0881C49.506 18.4814 48.5979 17.6015 47.9363 16.4484C47.2746 15.2989 46.9473 13.9152 46.9473 12.2973C46.9473 10.6794 47.2816 9.23184 47.9503 8.061C48.6191 6.89016 49.5306 5.99607 50.6815 5.37872C51.8324 4.76137 53.1346 4.4527 54.5847 4.4527C56.0347 4.4527 57.3581 4.77202 58.4879 5.40711C59.6211 6.04574 60.5151 6.94693 61.1768 8.11777C61.8385 9.2886 62.1658 10.7007 62.1658 12.3541C62.1658 14.0074 61.849 15.3486 61.219 16.491C60.5855 17.6335 59.7056 18.5027 58.5723 19.1023C57.439 19.7019 56.1298 20 54.641 20H54.6445ZM54.56 15.8063C55.3519 15.8063 55.9855 15.636 56.4571 15.2918C56.9287 14.9476 57.2631 14.5112 57.4601 13.979C57.6572 13.4468 57.7558 12.8934 57.7558 12.3257C57.7558 11.758 57.6572 11.1832 57.4601 10.6156C57.2631 10.0443 56.9322 9.57599 56.4712 9.20345C56.0101 8.83091 55.3731 8.64642 54.56 8.64642C53.747 8.64642 53.1346 8.83091 52.663 9.20345C52.1914 9.57599 51.8535 10.0408 51.6459 10.6014C51.4382 11.1619 51.3361 11.7367 51.3361 12.3257C51.3361 12.9146 51.4452 13.4539 51.6599 13.9932C51.8781 14.5361 52.216 14.9725 52.6771 15.306C53.1381 15.6395 53.7681 15.8063 54.56 15.8063Z" fill="#1E2136"/>
<path d="M64.4886 19.7729V0.496718C64.4886 0.223523 64.7104 0 64.9814 0H68.4974C68.7684 0 68.9901 0.223523 68.9901 0.496718V10.275H70.6866L73.9386 4.97782C74.0266 4.83236 74.1885 4.74366 74.3575 4.74366H78.2043C78.595 4.74366 78.8308 5.18361 78.6161 5.51357L74.4243 11.9035L79.489 19.7765H74.3117L70.8309 14.2984H68.9901V19.7765H64.4922L64.4886 19.7729Z" fill="#1E2136"/>
<path d="M85.3982 20C84.7013 20 84.0397 19.9042 83.4167 19.7162C82.7938 19.5246 82.2377 19.2407 81.7485 18.8611C81.2592 18.4815 80.8721 18.006 80.587 17.4348C80.3054 16.8636 80.1611 16.2001 80.1611 15.4373C80.1611 14.3552 80.3829 13.493 80.8263 12.8544C81.2698 12.2193 81.8716 11.7439 82.6389 11.4281C83.4026 11.1159 84.2755 10.9101 85.2574 10.8143C86.2394 10.7185 87.2565 10.6724 88.3124 10.6724H89.7273C89.7273 10.1969 89.6357 9.78536 89.4598 9.43057C89.2803 9.07931 89.0128 8.79902 88.6538 8.58969C88.2948 8.38036 87.8513 8.27747 87.3234 8.27747C86.9468 8.27747 86.5913 8.33069 86.264 8.43358C85.9332 8.53647 85.6587 8.68194 85.444 8.86289C85.2258 9.04383 85.0815 9.26736 85.004 9.53346H80.5061C80.6363 8.63936 80.9178 7.873 81.3402 7.23791C81.766 6.60282 82.294 6.08127 82.924 5.68389C83.5575 5.28297 84.2684 4.98494 85.0603 4.78625C85.8522 4.58756 86.6653 4.48822 87.4923 4.48822C89.6815 4.48822 91.3111 5.10557 92.388 6.34382C93.465 7.57852 94 9.3667 94 11.7048V19.7765H89.8962L89.868 17.8074C89.3964 18.5312 88.8579 19.0421 88.2561 19.3472C87.6507 19.6523 87.0876 19.8368 86.5597 19.9042C86.0317 19.9716 85.6446 20.0036 85.3982 20.0036V20ZM86.5315 16.4911C87.0982 16.4911 87.6261 16.3633 88.1153 16.1079C88.6045 15.8524 89.0057 15.5189 89.319 15.1109C89.6287 14.7029 89.7871 14.2594 89.7871 13.7839V13.5569H87.0137C86.711 13.5569 86.4154 13.5746 86.1232 13.6136C85.8311 13.6527 85.5707 13.7236 85.3454 13.8265C85.1202 13.9294 84.9407 14.0784 84.8069 14.27C84.6732 14.4616 84.6098 14.7064 84.6098 15.0115C84.6098 15.3344 84.6943 15.6076 84.8632 15.824C85.0322 16.0405 85.2645 16.2072 85.5566 16.3243C85.8487 16.4378 86.1725 16.4946 86.5315 16.4946V16.4911Z" fill="#1E2136"/>
<path d="M0 19.7375C0.00703909 19.5814 -0.00703909 19.4785 0.0211173 19.3862C1.96743 13.2234 3.92077 7.06761 5.853 0.897661C6.02194 0.361915 6.31406 0.24838 6.81384 0.255476C9.01004 0.276763 11.2062 0.305147 13.4024 0.24838C14.1838 0.227092 14.5076 0.489643 14.7399 1.23472C16.4609 6.79087 18.2277 12.3293 19.9805 17.8748C20.1705 18.4744 20.3535 19.0775 20.5682 19.7871C18.7979 19.7871 17.1789 19.8297 15.5634 19.7623C15.0425 19.741 14.4407 19.5423 14.0324 19.2195C11.8327 17.4845 9.68227 15.6857 7.39104 13.8088C6.83496 15.8702 6.31758 17.7932 5.79317 19.7375C3.77295 19.7375 1.89703 19.7375 0 19.7375ZM10.3545 3.54091C10.2771 3.54091 10.1996 3.53736 10.1257 3.53382C9.23529 6.87247 8.34484 10.2111 7.43328 13.6243C9.31976 13.6243 11.0936 13.6243 13.0434 13.6243C12.1284 10.1898 11.2414 6.86183 10.358 3.53736L10.3545 3.54091Z" fill="#FF2E39"/>
</g>
<defs>
<clipPath id="clip0_1583_494">
<rect width="94" height="20" fill="white"/>
</clipPath>
</defs>
</svg>
