<svg width="107" height="16" viewBox="0 0 107 16" fill="none" xmlns="http://www.w3.org/2000/svg">
<g clip-path="url(#clip0_1273_3938)">
<path d="M60.9723 1.86253C60.2148 0.762619 58.9682 0.102674 57.5538 0.0586775L51.4024 0.0391235C49.8729 0.0391235 48.4393 0.782173 47.5428 2.0434L47.0537 2.73268C47.0537 2.73268 55.6551 2.73268 57.2086 2.75223C57.8846 2.76201 58.4168 2.99177 58.7093 3.40729C59.0113 3.83259 59.0593 4.44365 58.8435 5.12314C58.6421 5.76842 58.3976 6.53103 58.1243 7.29852C57.7695 8.29577 57.1175 8.76018 56.0771 8.76506H51.8147C50.3236 8.76995 49.1058 9.99696 49.0914 11.5222C49.0914 11.5222 55.3147 11.5515 56.125 11.5466H56.1634C58.201 11.5319 60.0182 10.2267 60.699 8.26644C60.9675 7.49895 61.212 6.74612 61.4805 5.91019C61.9408 4.47298 61.7538 2.99665 60.9723 1.86253Z" fill="#FF4C48"/>
<path d="M48.775 13.1647C48.0989 13.1549 47.5667 12.9251 47.2743 12.5096C46.9722 12.0843 46.9243 11.4733 47.14 10.7938C47.3414 10.1485 47.5859 9.38588 47.8592 8.61839C48.214 7.62114 48.866 7.15674 49.9065 7.15185L54.1736 7.14207C55.6647 7.13718 56.8729 5.91506 56.8873 4.39474C56.8873 4.39474 50.664 4.36541 49.8537 4.3703H49.8154C47.7777 4.38008 45.9653 5.69019 45.2797 7.64558C45.0112 8.41308 44.7667 9.17079 44.4982 10.0067C44.0379 11.439 44.2249 12.9105 45.0064 14.0446C45.764 15.1445 47.0106 15.8045 48.4249 15.8485C49.1969 15.8729 52.6537 15.8827 55.1949 15.8827C56.8921 15.8827 58.4072 14.8023 58.9825 13.1745C58.9825 13.1745 50.3284 13.1745 48.775 13.1647Z" fill="#FF4C48"/>
<path d="M65.7045 0.0195539L62.1661 10.6422L60.3922 16H65.1819H65.1627H69.0895L70.8395 15.9902C72.5943 15.9804 74.1525 14.8317 74.6991 13.1305L75.5046 10.6422L77.7772 3.80813C78.4149 1.89184 77.2786 0 75.4902 0L65.7045 0.0195539ZM72.6326 3.67614C72.9059 3.76902 73.0258 3.96945 73.0018 4.28231C72.9922 4.40452 72.9395 4.60006 72.8484 4.86404L70.3744 12.2359H66.4285L69.286 3.67614H72.6326Z" fill="#1E2136"/>
<path d="M15.1076 0L5.31236 0.0195539L1.77398 10.6422L0 16H4.78976L6.20415 11.6639H10.1405H12.7919C14.3021 11.6688 15.285 10.1143 15.7453 8.73572L17.385 3.80813C18.0323 1.89184 16.896 0 15.1076 0ZM8.8891 3.67614H12.2357C12.509 3.76902 12.6288 3.96945 12.6049 4.28231C12.5953 4.40452 12.5425 4.60006 12.4515 4.86404L11.411 7.89979H7.46512L8.8891 3.67614Z" fill="#1E2136"/>
<path d="M83.4971 0.0146654C81.5553 0.0146654 79.8341 1.28078 79.2108 3.15307L76.7176 10.6471L74.9436 16.0049H79.7334L81.1525 11.6688H85.0793L83.6457 16.0049L88.3348 15.9804L90.0656 10.6471L92.3382 3.81302C92.9759 1.89184 91.8396 0 90.0512 0L83.4971 0.0146654ZM87.1841 3.67614C87.4574 3.76902 87.5772 3.96945 87.5533 4.28231C87.5437 4.40452 87.4909 4.60006 87.3998 4.86404L86.3594 7.89979H82.4135L83.8375 3.67614H87.1841Z" fill="#1E2136"/>
<path d="M23.2392 0.0146654C21.2974 0.0146654 19.5762 1.28078 18.9529 3.15307L16.4597 10.6471L14.6857 16.0049H19.4755L20.8947 11.6688H24.8214L23.3878 16.0049L28.0769 15.9804L29.8077 10.6471L32.0804 3.81302C32.718 1.89184 31.5817 0 29.7934 0L23.2392 0.0146654ZM26.9262 3.67614C27.1995 3.76902 27.3194 3.96945 27.2954 4.28231C27.281 4.40452 27.2331 4.60006 27.1372 4.86404L26.0968 7.89979H22.1508L23.5748 3.67614H26.9262Z" fill="#1E2136"/>
<path d="M33.4804 0H38.6297L38.6872 3.945L41.2188 0H46.7804L39.3201 9.46899L36.99 16L32.3009 15.9902L34.4728 9.46899L33.4804 0Z" fill="#1E2136"/>
<path d="M93.6999 0H98.8493L98.9068 3.945L101.438 0H107L99.5397 9.46899L97.2095 16L92.5204 15.9902L94.6924 9.46899L93.6999 0Z" fill="#1E2136"/>
</g>
<defs>
<clipPath id="clip0_1273_3938">
<rect width="107" height="16" fill="white"/>
</clipPath>
</defs>
</svg>
