<svg width="171" height="26" viewBox="0 0 171 26" fill="none" xmlns="http://www.w3.org/2000/svg">
<g clip-path="url(#clip0_862_2780)">
<path d="M97.4417 3.02657C96.2311 1.23922 94.2389 0.166807 91.9785 0.0953127L82.1477 0.0635376C79.7034 0.0635376 77.4124 1.27099 75.9796 3.32049L75.198 4.44056C75.198 4.44056 88.9442 4.44056 91.4268 4.47234C92.5072 4.48822 93.3577 4.86158 93.8251 5.5368C94.3078 6.22791 94.3845 7.22089 94.0396 8.32507C93.7178 9.37365 93.3271 10.6129 92.8903 11.8601C92.3233 13.4806 91.2812 14.2352 89.6185 14.2432H82.8067C80.4237 14.2511 78.4775 16.245 78.4545 18.7235C78.4545 18.7235 88.4002 18.7711 89.6951 18.7632H89.7564C93.0129 18.7394 95.9169 16.6184 97.005 13.4329C97.434 12.1858 97.8248 10.9624 98.2539 9.60402C98.9895 7.26855 98.6907 4.86953 97.4417 3.02657Z" fill="#FF4C48"/>
<path d="M77.9488 21.3926C76.8684 21.3767 76.0178 21.0033 75.5504 20.3281C75.0677 19.637 74.9911 18.644 75.3359 17.5399C75.6577 16.4913 76.0485 15.252 76.4852 14.0049C77.0523 12.3843 78.0943 11.6297 79.7571 11.6217L86.5765 11.6058C88.9595 11.5979 90.8904 9.61196 90.9134 7.14144C90.9134 7.14144 80.9677 7.09378 79.6728 7.10172H79.6115C76.355 7.11761 73.4586 9.24655 72.3629 12.4241C71.9338 13.6712 71.543 14.9025 71.114 16.2609C70.3784 18.5884 70.6772 20.9795 71.9262 22.8225C73.1368 24.6098 75.129 25.6822 77.3894 25.7537C78.623 25.7934 84.1476 25.8093 88.2086 25.8093C90.9211 25.8093 93.3423 24.0538 94.2618 21.4085C94.2618 21.4085 80.4313 21.4085 77.9488 21.3926Z" fill="#FF4C48"/>
<path d="M105.004 0.0317751L99.3497 17.2936L96.5146 26H104.169H104.139H110.414L113.211 25.9841C116.015 25.9682 118.506 24.1014 119.379 21.337L120.666 17.2936L124.298 6.18821C125.317 3.07424 123.501 0 120.643 0L105.004 0.0317751ZM116.077 5.97372C116.513 6.12466 116.705 6.45035 116.667 6.95875C116.651 7.15735 116.567 7.4751 116.421 7.90406L112.468 19.8833H106.162L110.728 5.97372H116.077Z" fill="#1E2136"/>
<path d="M24.144 0L8.48985 0.0317751L2.83506 17.2936L0 26H7.65466L9.91504 18.9539H16.2058H20.4431C22.8567 18.9618 24.4275 16.4357 25.1631 14.1955L27.7836 6.18821C28.818 3.07424 27.002 0 24.144 0ZM14.2059 5.97372H19.5542C19.991 6.12466 20.1826 6.45035 20.1442 6.95875C20.1289 7.15735 20.0446 7.4751 19.899 7.90406L18.2363 12.8372H11.9302L14.2059 5.97372Z" fill="#1E2136"/>
<path d="M133.439 0.0238313C130.336 0.0238313 127.585 2.08127 126.589 5.12374L122.605 17.3016L119.77 26.0079H127.424L129.692 18.9618H135.968L133.677 26.0079L141.171 25.9682L143.937 17.3016L147.569 6.19615C148.588 3.07424 146.772 0 143.914 0L133.439 0.0238313ZM139.332 5.97372C139.768 6.12466 139.96 6.45035 139.922 6.95875C139.906 7.15735 139.822 7.4751 139.676 7.90406L138.014 12.8372H131.708L133.983 5.97372H139.332Z" fill="#1E2136"/>
<path d="M37.1393 0.0238313C34.0361 0.0238313 31.2853 2.08127 30.2892 5.12374L26.3048 17.3016L23.4697 26.0079H31.1244L33.3924 18.9618H39.6679L37.3768 26.0079L44.8706 25.9682L47.6367 17.3016L51.2686 6.19615C52.2877 3.07424 50.4717 0 47.6137 0L37.1393 0.0238313ZM43.0316 5.97372C43.4684 6.12466 43.6599 6.45035 43.6216 6.95875C43.5986 7.15735 43.522 7.4751 43.3688 7.90406L41.7061 12.8372H35.4L37.6757 5.97372H43.0316Z" fill="#1E2136"/>
<path d="M53.506 0H61.7354L61.8273 6.41063L65.873 0H74.7613L62.8387 15.3871L59.1148 26L51.6211 25.9841L55.0921 15.3871L53.506 0Z" fill="#1E2136"/>
<path d="M149.745 0H157.974L158.066 6.41063L162.112 0H171L159.077 15.3871L155.353 26L147.86 25.9841L151.331 15.3871L149.745 0Z" fill="#1E2136"/>
</g>
<defs>
<clipPath id="clip0_862_2780">
<rect width="171" height="26" fill="white"/>
</clipPath>
</defs>
</svg>
