<svg width="23" height="22" viewBox="0 0 23 22" fill="none" xmlns="http://www.w3.org/2000/svg">
<path d="M6.15411 3.65C6.15411 3.0701 6.62315 2.6 7.20173 2.6H16.81C17.0879 2.6 17.3544 2.71062 17.5508 2.90754L20.5139 5.87739C20.7104 6.0743 20.8208 6.34137 20.8208 6.61985V18.35C20.8208 18.9299 20.3517 19.4 19.7732 19.4H7.20173C6.62315 19.4 6.15411 18.9299 6.15411 18.35V17.3C6.15411 16.7201 5.68508 16.25 5.10649 16.25C4.52791 16.25 4.05887 16.7201 4.05887 17.3V18.35C4.05887 20.0897 5.46598 21.5 7.20173 21.5H19.7732C21.5089 21.5 22.916 20.0897 22.916 18.35V6.61985C22.916 5.78442 22.5849 4.9832 21.9955 4.39246L19.0324 1.42261C18.443 0.831874 17.6436 0.5 16.81 0.5H7.20173C5.46598 0.5 4.05887 1.9103 4.05887 3.65C4.05887 4.2299 4.52791 4.7 5.10649 4.7C5.68508 4.7 6.15411 4.2299 6.15411 3.65Z" fill="#505A8A"/>
<path d="M0.916016 7.85C0.916016 7.2701 1.38505 6.8 1.96363 6.8H3.53506C4.98152 6.8 6.15411 7.97525 6.15411 9.425C6.15411 10.8747 4.98152 12.05 3.53506 12.05H3.01125V13.1C3.01125 13.6799 2.54222 14.15 1.96363 14.15C1.38505 14.15 0.916016 13.6799 0.916016 13.1V7.85ZM3.01125 9.95H3.53506C3.82436 9.95 4.05887 9.71495 4.05887 9.425C4.05887 9.13505 3.82436 8.9 3.53506 8.9H3.01125V9.95Z" fill="#505A8A"/>
<path d="M7.20173 7.85C7.20173 7.2701 7.67077 6.8 8.24935 6.8H9.29697C11.0327 6.8 12.4398 8.2103 12.4398 9.95V11C12.4398 12.7397 11.0327 14.15 9.29697 14.15H8.24935C7.67077 14.15 7.20173 13.6799 7.20173 13.1V7.85ZM9.29697 8.9V12.05C9.87555 12.05 10.3446 11.5799 10.3446 11V9.95C10.3446 9.3701 9.87555 8.9 9.29697 8.9Z" fill="#505A8A"/>
<path d="M17.6779 6.8H14.5351C13.9565 6.8 13.4874 7.2701 13.4874 7.85V13.1C13.4874 13.6799 13.9565 14.15 14.5351 14.15C15.1136 14.15 15.5827 13.6799 15.5827 13.1V12.05H16.6303C17.2089 12.05 17.6779 11.5799 17.6779 11C17.6779 10.4201 17.2089 9.95 16.6303 9.95H15.5827V8.9H17.6779C18.2565 8.9 18.7255 8.4299 18.7255 7.85C18.7255 7.2701 18.2565 6.8 17.6779 6.8Z" fill="#505A8A"/>
</svg>
