<svg width="40" height="41" viewBox="0 0 40 41" fill="none" xmlns="http://www.w3.org/2000/svg">
<path d="M3.33337 25.8645C3.33337 23.1031 5.57195 20.8645 8.33337 20.8645H11.6667V37.5312H8.33338C5.57195 37.5312 3.33337 35.2926 3.33337 32.5312V25.8645Z" fill="#1E2136"/>
<path d="M37.2979 21.6771C37.8239 19.5737 36.2336 17.5359 34.0655 17.5351L24.1666 17.5311L25.0816 12.0414C25.5241 9.38599 24.1149 6.76735 21.6549 5.67401C20.0928 4.97975 18.3333 6.12319 18.3333 7.83262V10.7772C18.3333 11.9125 17.9469 13.0141 17.2376 13.9007L11.6666 20.8644V37.5311H29.4297C31.7239 37.5311 33.7237 35.9698 34.2803 33.7441L37.2979 21.6771Z" fill="url(#paint0_linear_1059_3643)" fill-opacity="0.5"/>
<defs>
<linearGradient id="paint0_linear_1059_3643" x1="25" y1="4.19775" x2="25" y2="37.5311" gradientUnits="userSpaceOnUse">
<stop stop-color="#ADB1B5"/>
<stop offset="1" stop-color="#8D9298"/>
</linearGradient>
</defs>
</svg>
