<svg width="106" height="38" viewBox="0 0 106 38" fill="none" xmlns="http://www.w3.org/2000/svg">
<g clip-path="url(#clip0_1237_3676)">
<path fill-rule="evenodd" clip-rule="evenodd" d="M99.4851 15.3371C99.4851 14.2184 100.376 13.2787 101.446 13.2787C102.516 13.2787 103.407 14.2184 103.407 15.3371C103.407 16.4558 102.56 17.3955 101.446 17.3955C100.376 17.4402 99.4851 16.5005 99.4851 15.3371ZM101.446 16.948C102.293 16.948 102.917 16.232 102.917 15.3818C102.917 14.5316 102.248 13.8156 101.446 13.8156C100.599 13.8156 99.9754 14.5316 99.9754 15.3818C99.9754 16.232 100.644 16.948 101.446 16.948ZM101.179 16.2768H100.778V14.4421H101.535C101.669 14.4421 101.847 14.4421 101.981 14.5316C102.115 14.6211 102.204 14.8001 102.204 14.9791C102.204 15.2028 102.07 15.3818 101.892 15.4266L102.204 16.232H101.758L101.491 15.5161H101.179V16.2768ZM101.179 15.2476H101.402C101.491 15.2476 101.58 15.2476 101.624 15.2028C101.669 15.1581 101.714 15.0686 101.714 14.9791C101.714 14.9343 101.669 14.8448 101.624 14.8001C101.58 14.7553 101.446 14.7553 101.402 14.7553H101.179C101.223 14.8001 101.179 15.2476 101.179 15.2476ZM71.4516 1.59941L70.9168 5.13451C69.758 4.50804 68.9112 4.2843 67.9753 4.2843C65.524 4.2843 63.8304 6.79019 63.8304 10.3253C63.8304 12.7864 64.9892 14.2631 66.9056 14.2631C67.7078 14.2631 68.5992 13.9946 69.7134 13.4129L69.134 17.127C67.9307 17.485 67.1285 17.6192 66.2371 17.6192C62.7162 17.6192 60.4878 14.9343 60.4878 10.6385C60.4878 4.86602 63.5184 0.793945 67.8861 0.793945C68.4655 0.793945 68.9558 0.838693 69.3569 0.972938L70.7385 1.33092C71.0505 1.46517 71.1396 1.46517 71.4516 1.59941ZM60.5323 4.01581C60.4432 3.97106 60.3095 3.97106 60.2204 3.97106C59.1507 3.97106 58.5268 4.55278 57.5017 6.11897L57.8137 4.1053H54.8276L52.822 17.2612H56.1201C57.3234 9.20659 57.5908 7.8194 59.1953 7.8194H59.4181C59.7301 6.25321 60.0867 5.08976 60.666 4.01581H60.5323ZM40.9222 17.0823C40.0309 17.3955 39.3178 17.5297 38.5601 17.5297C36.9111 17.5297 35.9752 16.5005 35.9752 14.6211C35.9752 14.2631 36.0197 13.8604 36.0643 13.4129L36.2871 12.1152L36.4208 11.086L37.847 2.09164H41.1005L40.6994 4.01581H42.393L41.9028 7.19292H40.2983L39.4069 12.7864C39.3624 13.0102 39.3624 13.1892 39.3624 13.3234C39.3624 13.9946 39.7189 14.3079 40.4766 14.3079C40.8777 14.3079 41.1451 14.2631 41.3679 14.1736L40.9222 17.0823ZM27.9528 8.26688C27.9528 9.92256 28.7105 11.086 30.4487 11.9362C31.7412 12.6074 32.0086 12.7864 32.0086 13.4129C32.0086 14.2184 31.4292 14.6211 30.1367 14.6211C29.1562 14.6211 28.2648 14.4869 27.1952 14.0841L26.7495 17.127L26.8832 17.1717L27.4626 17.306C27.6854 17.3507 27.9528 17.3955 28.3094 17.4402C29.0671 17.485 29.691 17.5745 30.1367 17.5745C33.5685 17.5745 35.1729 16.1873 35.1729 13.1892C35.1729 11.3992 34.5044 10.3253 32.8554 9.51982C31.4737 8.8486 31.34 8.71436 31.34 8.08788C31.34 7.37191 31.8749 7.01393 32.9445 7.01393C33.613 7.01393 34.4598 7.10343 35.3066 7.23767L35.7969 4.1948C34.8609 4.01581 33.8804 3.92631 32.8999 3.92631C29.2008 3.83682 27.9528 5.80573 27.9528 8.26688ZM97.6132 17.2612H94.4935L94.6272 15.9635C93.7358 16.9928 92.7999 17.4402 91.5965 17.4402C89.1898 17.4402 87.6299 15.2476 87.6299 11.981C87.6299 7.59565 90.0812 3.88156 92.9781 3.88156C94.2706 3.88156 95.2066 4.46329 96.1425 5.67149L96.8556 1.06243H100.109L97.6132 17.2612ZM92.7553 14.1736C94.3152 14.1736 95.3848 12.339 95.3848 9.74356C95.3848 8.08788 94.7609 7.14817 93.6467 7.14817C92.1759 7.14817 91.1063 8.98285 91.1063 11.5782C91.0617 13.2787 91.6411 14.1736 92.7553 14.1736ZM51.3067 16.9928C50.1925 17.3507 49.0783 17.5297 47.9195 17.5297C44.2649 17.5297 42.3484 15.5161 42.3484 11.623C42.3484 7.10343 44.7997 3.79207 48.0978 3.79207C50.8164 3.79207 52.51 5.67149 52.51 8.58011C52.51 9.51982 52.3763 10.5043 52.1089 11.8467H45.5574C45.5128 12.0705 45.5128 12.16 45.5128 12.2495C45.5128 13.8156 46.4933 14.5764 48.4097 14.5764C49.5685 14.5764 50.6382 14.3079 51.8415 13.7261C51.7969 13.7261 51.3067 16.9928 51.3067 16.9928ZM49.4794 9.11709C49.5239 8.8486 49.5239 8.62486 49.5239 8.44587C49.5239 7.37191 48.9446 6.74544 47.9641 6.74544C46.9836 6.74544 46.1813 7.59565 45.8693 9.11709H49.4794ZM14.7606 17.2612H11.5071L13.379 4.82127L9.14499 17.2612H6.91657L6.64916 4.91077L4.64358 17.2612H1.56836L4.19789 1.06243H8.92214L9.05585 11.086L12.2202 1.06243H17.3456L14.7606 17.2612ZM23.2286 11.3992C22.8721 11.3545 22.7383 11.3545 22.4709 11.3545C20.5991 11.3545 19.6631 12.0257 19.6631 13.3682C19.6631 14.1736 20.1534 14.7106 20.8665 14.7106C22.2035 14.6659 23.184 13.3234 23.2286 11.3992ZM25.6353 17.2612H22.9166L22.9612 15.8741C22.1144 16.9928 21.0447 17.4402 19.5294 17.4402C17.7467 17.4402 16.5433 15.9635 16.5433 13.8604C16.5433 10.6385 18.6826 8.80385 22.2927 8.80385C22.6938 8.80385 23.1395 8.8486 23.6297 8.89335C23.7189 8.44587 23.7634 8.26688 23.7634 8.04314C23.7634 7.19292 23.184 6.83494 21.6687 6.83494C20.7328 6.83494 19.6631 6.96918 18.95 7.23767L18.4598 7.37191L18.1478 7.46141L18.5935 4.50804C20.2425 4.01581 21.3122 3.79207 22.5155 3.79207C25.3233 3.79207 26.8386 5.13451 26.8386 7.6404C26.8386 8.31162 26.7941 8.75911 26.5712 10.2805L25.9027 14.9791L25.769 15.8293L25.6799 16.5005L25.6353 16.9928C25.6799 16.9033 25.6353 17.2612 25.6353 17.2612ZM77.1118 11.3992C76.7998 11.3545 76.6215 11.3545 76.3541 11.3545C74.4823 11.3545 73.5463 12.0257 73.5463 13.3682C73.5463 14.1736 74.0366 14.7106 74.7497 14.7106C76.0867 14.6659 77.0672 13.3234 77.1118 11.3992ZM79.4739 17.2612H76.7552L76.7998 15.8741C75.953 16.9928 74.8834 17.4402 73.368 17.4402C71.5853 17.4402 70.382 15.9635 70.382 13.8604C70.382 10.6385 72.5212 8.80385 76.1313 8.80385C76.4878 8.80385 76.9781 8.8486 77.4683 8.89335C77.5575 8.44587 77.602 8.26688 77.602 8.04314C77.602 7.19292 77.0226 6.83494 75.5073 6.83494C74.5714 6.83494 73.5017 6.96918 72.7887 7.23767L72.2984 7.37191L71.9864 7.46141L72.4321 4.50804C74.0811 4.01581 75.1508 3.79207 76.3541 3.79207C79.1619 3.79207 80.6773 5.13451 80.6773 7.6404C80.6773 8.31162 80.6327 8.75911 80.4098 10.2805L79.7413 14.9343L79.6522 15.7846L79.563 16.4558L79.5185 16.9033L79.4739 17.2612ZM88.655 4.01581C88.5659 3.97106 88.4322 3.97106 88.343 3.97106C87.2734 3.97106 86.6494 4.55278 85.6243 6.11897L85.9363 4.1053H82.9502L80.9447 17.2612H84.2427C85.4461 9.20659 85.7135 7.8194 87.3179 7.8194H87.5408C87.7636 6.47695 88.2093 5.22401 88.7887 4.01581H88.655Z" fill="#DDE2F6"/>
<path fill-rule="evenodd" clip-rule="evenodd" d="M74.8832 30.0144C74.8832 33.0125 73.9472 34.7576 72.521 34.7576C71.4514 34.8024 70.8274 33.5942 70.8274 31.849C70.8274 29.7459 71.7634 27.3742 73.2787 27.3742C74.482 27.3742 74.8832 28.6719 74.8832 30.0144ZM78.1367 30.0591C78.1367 26.7477 76.4876 24.1524 73.457 24.1524C69.9361 24.1524 67.6185 27.2847 67.6185 31.8938C67.6185 35.2051 69.0001 37.9348 72.2982 37.9348C75.5963 37.9348 78.1367 35.5631 78.1367 30.0591ZM68.6436 21.8702L68.1533 25.4053C67.0391 24.7788 66.2815 24.5551 65.4347 24.5551C63.1617 24.5551 61.5572 27.061 61.5572 30.5961C61.5572 33.0572 62.6269 34.5339 64.4096 34.5339C65.1673 34.5339 66.014 34.2654 67.0391 33.6837L66.5043 37.3978C65.3901 37.7558 64.6324 37.89 63.7856 37.89C60.4876 37.89 58.3929 35.2051 58.3929 30.9093C58.3929 25.1368 61.2452 21.0647 65.301 21.0647C65.8358 21.0647 66.2815 21.1095 66.6826 21.2437L67.9305 21.6017C68.287 21.6912 68.3762 21.736 68.6436 21.8702ZM48.365 24.2418C48.2758 24.1971 48.1421 24.1971 48.053 24.1971C47.0279 24.1971 46.4931 24.7788 45.5126 26.345L45.8246 24.3313H43.0613L41.1895 37.4873H44.2647C45.3789 29.4326 45.6463 28.0454 47.1171 28.0454C47.1765 28.0454 47.2508 28.0604 47.3399 28.0902C47.6073 26.524 48.0084 25.3606 48.4987 24.2866L48.365 24.2418ZM88.3874 37.3978H85.4904L85.6241 36.1001C84.7773 37.1293 83.886 37.5768 82.7718 37.5768C80.5433 37.5768 79.0726 35.3841 79.0726 32.1175C79.0726 27.7322 81.3456 24.0181 84.0642 24.0181C85.2676 24.0181 86.159 24.5998 87.0058 25.8528L87.6743 21.2437H90.7049L88.3874 37.3978ZM83.8414 34.3102C85.3122 34.3102 86.2927 32.4755 86.2927 29.8801C86.2927 28.2244 85.7133 27.3295 84.6436 27.3295C83.262 27.3295 82.2815 29.1641 82.2815 31.7595C82.2815 33.4152 82.8163 34.3102 83.8414 34.3102ZM19.6184 37.353C18.5933 37.711 17.5236 37.89 16.454 37.89C13.0222 37.89 11.2395 35.8763 11.2395 31.9833C11.2395 27.4637 13.5125 24.1524 16.5877 24.1524C19.1281 24.1524 20.7326 25.987 20.7326 28.9404C20.7326 29.8801 20.5989 30.8646 20.3315 32.207H14.2701C14.2256 32.4307 14.2256 32.5202 14.2256 32.6097C14.2256 34.1312 15.1615 34.8919 16.9443 34.8919C18.0585 34.8919 19.039 34.6234 20.1086 34.0417L19.6184 37.353ZM17.8802 29.5221C17.8802 29.2536 17.9248 29.0299 17.9248 28.8509C17.9248 27.7769 17.3899 27.1505 16.454 27.1505C15.5181 27.1505 14.805 28.0007 14.493 29.5221H17.8802ZM56.0753 37.353C55.0502 37.711 53.9806 37.89 52.9109 37.89C49.4792 37.89 47.6964 35.8763 47.6964 31.9833C47.6964 27.4637 49.9694 24.1524 53.0447 24.1524C55.585 24.1524 57.1895 25.987 57.1895 28.9404C57.1895 29.8801 57.0558 30.8646 56.7884 32.207H50.6825C50.638 32.4307 50.638 32.5202 50.638 32.6097C50.638 34.1312 51.5739 34.8919 53.3566 34.8919C54.4708 34.8919 55.4513 34.6234 56.521 34.0417L56.0753 37.353ZM54.3817 29.5221C54.4263 29.2536 54.4263 29.0299 54.4263 28.8509C54.4263 27.7769 53.8914 27.1505 52.9555 27.1505C52.0196 27.1505 51.3065 28.0007 50.9945 29.5221H54.3817ZM98.861 37.353C97.8359 37.711 96.7662 37.89 95.6966 37.89C92.2648 37.89 90.4821 35.8763 90.4821 31.9833C90.4821 27.4637 92.7551 24.1524 95.8749 24.1524C98.4153 24.1524 100.02 25.987 100.02 28.9404C100.02 29.8801 99.886 30.8646 99.6186 32.207H93.5127C93.4682 32.4307 93.4682 32.5202 93.4682 32.6097C93.4682 34.1312 94.4041 34.8919 96.1869 34.8919C97.3011 34.8919 98.2816 34.6234 99.3512 34.0417L98.861 37.353ZM97.1228 29.5221C97.1228 29.2536 97.1674 29.0299 97.1674 28.8509C97.1674 27.7769 96.6325 27.1505 95.6966 27.1505C94.7607 27.1505 94.0476 28.0007 93.7356 29.5221H97.1228ZM10.5264 24.8683C9.94702 24.4656 9.10022 24.1076 7.98601 24.1076C6.73809 24.1076 5.75759 24.3761 5.75759 25.6738C5.75759 28.0007 10.259 27.1505 10.259 32.1623C10.259 36.7266 7.27291 37.9348 4.59881 37.9348C3.39546 37.9348 2.01384 37.532 0.98877 37.0845L1.74643 33.7284C2.37039 34.3102 3.57374 34.6682 4.64338 34.6682C5.62388 34.6682 7.09464 34.3997 7.09464 32.6992C7.09464 30.0591 2.59323 31.0436 2.59323 26.3898C2.59323 22.1387 5.22277 20.8857 7.80773 20.8857C9.23392 20.8857 10.6155 21.1095 11.3732 21.6465L10.5264 24.8683ZM28.5766 37.353C27.9526 37.6663 27.1058 37.8453 25.8579 37.8453C23.1838 37.8453 21.5348 35.1604 21.5348 31.8938C21.5348 27.598 23.9415 24.1971 27.4624 24.1971C28.2201 24.1971 29.4234 24.5103 30.3593 25.0473L29.6908 28.1797C29.0223 27.7322 28.3538 27.4637 27.6407 27.4637C25.9916 27.4637 24.8329 28.9851 24.8329 31.67C24.8329 33.2362 25.6797 34.4892 27.0167 34.4892C27.8189 34.4892 28.3983 34.3102 29.0669 33.9074L28.5766 37.353ZM40.0752 34.0417C39.897 35.1604 39.8078 36.3238 39.6741 37.4425H36.7326L36.9555 35.3394H36.9109C35.975 36.7713 35.039 37.7558 33.3454 37.7558C31.5181 37.7558 30.493 35.7869 30.493 33.2362C30.493 32.3413 30.5376 31.849 30.7159 30.5066L31.5627 24.4208H34.8607L33.9694 30.5513C33.8802 31.2226 33.7465 31.849 33.7465 32.565C33.7465 33.3257 34.1031 34.1312 34.9945 34.0417C36.3315 34.0417 37.1337 32.386 37.3566 30.4618L38.2925 24.4208H41.4569L40.0752 34.0417ZM101.892 37.2635H101.401V35.1156H100.688V34.6234H102.605V35.1156H101.892V37.2635ZM105.19 37.2635H104.699V35.0709L104.254 37.2635H103.763L103.318 35.0709V37.2635H102.828V34.6234H103.585L103.986 36.7266H104.031L104.432 34.6234H105.145C105.19 34.6234 105.19 37.2635 105.19 37.2635Z" fill="#DDE2F6"/>
</g>
<defs>
<clipPath id="clip0_1237_3676">
<rect width="104.201" height="37.1409" fill="white" transform="translate(0.98877 0.793945)"/>
</clipPath>
</defs>
</svg>
