<svg width="92" height="38" viewBox="0 0 92 38" fill="none" xmlns="http://www.w3.org/2000/svg">
<g clip-path="url(#clip0_1237_3680)">
<path d="M48.2085 16.9717H49.8704L47.4573 24.7239H45.636L48.2085 16.9717Z" fill="#DDE2F6"/>
<path d="M48.2085 16.9717H49.8704L47.4573 24.7239H45.636L48.2085 16.9717Z" fill="#DDE2F6"/>
<path d="M50.3607 16.9717H48.7676L51.0808 24.7239H52.827L50.3607 16.9717Z" fill="#DDE2F6"/>
<path d="M50.3607 16.9717H48.7676L51.0808 24.7239H52.827L50.3607 16.9717Z" fill="#DDE2F6"/>
<path d="M51.6489 21.8081H47.0137V23.4783H51.6489V21.8081Z" fill="#DDE2F6"/>
<path d="M60.4768 23.4489C59.9267 24.0414 59.1988 24.462 58.3899 24.6538C57.5809 24.8457 56.7289 24.8001 55.9479 24.5235C55.1669 24.2469 54.4936 23.7515 54.0181 23.1044C53.5426 22.4573 53.287 21.688 53.2857 20.9006C53.2843 20.1131 53.5371 19.3429 54.0108 18.6944C54.4844 18.0459 55.1559 17.5488 55.936 17.2699C56.7161 16.991 57.5681 16.9427 58.3775 17.1327C59.1874 17.3223 59.6276 17.6777 60.1896 18.1043L59.017 19.5402C58.7252 19.2281 58.34 19.0071 57.9121 18.9068C57.4838 18.8065 57.034 18.8321 56.6213 18.9793C56.209 19.1269 55.854 19.3894 55.6039 19.7321C55.3538 20.0748 55.2201 20.4818 55.2205 20.8983C55.2214 21.3148 55.3566 21.7208 55.6076 22.0631C55.8591 22.4053 56.215 22.6669 56.6277 22.8132C57.0404 22.9595 57.4907 22.9836 57.9185 22.882C58.3459 22.7804 58.9758 22.4486 59.2662 22.1355L60.4768 23.4494V23.4489Z" fill="#DDE2F6"/>
<path d="M68.1265 23.403C67.5764 23.9955 66.8485 24.4161 66.0396 24.6079C65.2306 24.7998 64.3786 24.7542 63.5976 24.4776C62.8166 24.201 62.1432 23.7056 61.6678 23.0585C61.1923 22.4114 60.9367 21.6421 60.9353 20.8547C60.9339 20.0672 61.1868 19.297 61.6604 18.6485C62.1341 18 62.8056 17.5029 63.5857 17.224C64.3658 16.9451 65.2178 16.8968 66.0272 17.0868C66.837 17.2764 67.2772 17.6318 67.8393 18.0584L66.6666 19.4943C66.3749 19.1822 65.9896 18.9612 65.5618 18.8609C65.1335 18.7606 64.6837 18.7862 64.271 18.9334C63.8587 19.081 63.5037 19.3435 63.2536 19.6862C63.0035 20.0289 62.8697 20.4359 62.8702 20.8524C62.8711 21.2689 63.0062 21.6749 63.2572 22.0172C63.5087 22.3594 63.8646 22.621 64.2774 22.7673C64.6901 22.9136 65.1404 22.9377 65.5682 22.8361C65.9956 22.7345 66.6254 22.4027 66.9158 22.0896L68.1265 23.4035V23.403Z" fill="#DDE2F6"/>
<path d="M8.30322 12.5972V24.9238H12.3374V17.6574H12.6255L14.8682 24.9238H17.8874L20.1924 17.6574H20.4805V24.9238H24.4767V12.5972H20.0169C20.0169 12.5972 18.7142 12.5972 18.2882 14.0678C17.8622 15.5384 16.5594 19.8882 16.5594 19.8882H16.2085C16.2085 19.8882 14.7803 14.6534 14.6049 14.2049C14.4294 13.7561 14.1413 12.5972 12.6255 12.5972H8.30322Z" fill="#DDE2F6"/>
<path fill-rule="evenodd" clip-rule="evenodd" d="M39.9907 12.4604H31.4358C31.6396 15.2002 33.9794 17.5458 36.4022 17.5458H44.4115C44.8736 15.2686 43.2823 12.4604 39.9907 12.4604Z" fill="#DDE2F6"/>
<path d="M31.6611 24.7782V18.3093C31.6611 18.3093 44.2515 18.2747 44.3143 18.3093C44.3775 18.3444 43.8132 19.3315 43.3244 19.7927C42.8357 20.2539 41.8962 20.7023 41.8962 20.7023L44.3138 24.7778H40.1921L38.0498 21.1011H35.5945V24.7778H31.6606L31.6611 24.7782Z" fill="#DDE2F6"/>
<path d="M29.948 12.4146H25.939V24.7285H29.948V12.4146Z" fill="#DDE2F6"/>
<path d="M86.5412 25.3118V18.4988H83.9302V16.6987H91.3051V18.4988H88.6254V25.3118H86.5412Z" fill="#DDE2F6"/>
<path fill-rule="evenodd" clip-rule="evenodd" d="M80.2602 17.1094H74.6772C74.8101 18.8972 76.3373 20.4279 77.9181 20.4279H83.1451C83.4465 18.9418 82.4085 17.1094 80.2602 17.1094Z" fill="#DDE2F6"/>
<path d="M75.2725 24.7652V20.7549H83.197C83.0042 21.2908 82.3267 21.8714 82.3267 21.8714C82.3267 21.8714 81.7115 22.3412 80.9983 22.4182H77.2192V24.7652H75.2725Z" fill="#DDE2F6"/>
<path d="M73.8982 17.1094V18.6816H70.8292V20.0715H73.2569V21.6438H70.8292V23.2388H73.8982V24.7198H69.0427V17.1094H73.8982Z" fill="#DDE2F6"/>
<path d="M86.7553 26.8149H31.6187L33.428 31.281H89.6416C89.6416 31.281 89.8019 29.6208 89.0461 28.4519C88.2898 27.283 87.6485 26.8149 86.7553 26.8149Z" fill="#DDE2F6"/>
<path d="M35.1716 28.9471C33.0984 32.3709 29.9703 35.0378 26.2517 36.5517C22.5331 38.0655 18.4233 38.3453 14.532 37.3496C10.6412 36.3539 7.17686 34.1359 4.65429 31.0247C2.13217 27.9135 0.685595 24.076 0.53031 20.082C0.375026 16.0881 1.51928 12.1508 3.79266 8.85547C6.06651 5.55972 9.3481 3.08199 13.1501 1.79049C16.952 0.498535 21.0714 0.462078 24.8963 1.68522C28.7211 2.90882 33.1534 5.70829 35.9247 10.9855H30.9918C29.1792 8.45672 26.5948 6.57734 23.6224 5.62672C20.6505 4.67609 17.449 4.7048 14.4949 5.70829C11.5404 6.71223 8.99035 8.63764 7.22359 11.1983C5.45682 13.759 4.56771 16.8187 4.68819 19.9221C4.80866 23.0255 5.93275 26.0077 7.89328 28.4253C9.85335 30.8429 12.5454 32.5664 15.5691 33.3402C18.5928 34.114 21.7865 33.8966 24.6759 32.7204C27.5654 31.5442 29.9964 29.4716 31.6074 26.8112L35.1721 28.9476L35.1716 28.9471Z" fill="#DDE2F6"/>
</g>
<defs>
<clipPath id="clip0_1237_3680">
<rect width="90.7889" height="37.1409" fill="white" transform="translate(0.516357 0.793945)"/>
</clipPath>
</defs>
</svg>
