<svg width="111" height="42" viewBox="0 0 111 42" fill="none" xmlns="http://www.w3.org/2000/svg">
<path d="M75.7987 24.1489L76.8968 24.4704C76.8236 24.7739 76.7138 25.0239 76.5491 25.2204C76.3844 25.4168 76.2013 25.5775 75.9634 25.6668C75.7255 25.7739 75.4327 25.8275 75.0667 25.8275C74.6275 25.8275 74.2798 25.7739 73.987 25.6489C73.7125 25.5239 73.4746 25.3096 73.2733 24.9882C73.072 24.6846 72.9622 24.2739 72.9622 23.7918C72.9622 23.1489 73.1452 22.6489 73.4929 22.2918C73.8406 21.9346 74.353 21.7739 74.9935 21.7739C75.5059 21.7739 75.8902 21.8811 76.183 22.0775C76.4759 22.2739 76.6955 22.5775 76.8236 23.0061L75.7255 23.2382C75.6889 23.1132 75.6523 23.0239 75.5974 22.9704C75.5242 22.8811 75.451 22.8096 75.3412 22.7561C75.2314 22.7025 75.1216 22.6846 75.0118 22.6846C74.7373 22.6846 74.5177 22.7918 74.3713 23.0239C74.2615 23.1846 74.2066 23.4525 74.2066 23.7918C74.2066 24.2204 74.2798 24.5239 74.4079 24.6846C74.536 24.8454 74.7373 24.9346 74.9752 24.9346C75.2131 24.9346 75.3961 24.8632 75.5059 24.7382C75.6523 24.5775 75.7438 24.3989 75.7987 24.1489Z" fill="#DDE2F6"/>
<path d="M77.3359 23.7925C77.3359 23.1497 77.5189 22.6497 77.885 22.2926C78.251 21.9354 78.7634 21.7568 79.4222 21.7568C80.081 21.7568 80.6117 21.9354 80.9777 22.2747C81.3438 22.6318 81.5268 23.114 81.5268 23.7568C81.5268 24.2211 81.4536 24.5961 81.2889 24.8818C81.1241 25.1675 80.9045 25.3997 80.5934 25.5604C80.3006 25.7211 79.9163 25.8104 79.4771 25.8104C79.0379 25.8104 78.6536 25.739 78.3425 25.5961C78.0497 25.4533 77.8118 25.239 77.6104 24.9175C77.4091 24.5961 77.3359 24.2568 77.3359 23.7925ZM78.5804 23.7925C78.5804 24.1854 78.6536 24.4711 78.8 24.6497C78.9464 24.8283 79.1477 24.9175 79.4222 24.9175C79.6967 24.9175 79.898 24.8283 80.0444 24.6676C80.1908 24.489 80.264 24.1854 80.264 23.7568C80.264 23.3818 80.1908 23.114 80.0261 22.9533C79.8797 22.7747 79.6601 22.7033 79.4039 22.7033C79.1477 22.7033 78.9464 22.7926 78.8 22.9711C78.6536 23.114 78.5804 23.3997 78.5804 23.7925Z" fill="#DDE2F6"/>
<path d="M82.1672 21.8276H83.796L84.4182 24.2205L85.0404 21.8276H86.6691V25.7562H85.6443V22.7562L84.8574 25.7562H83.9424L83.1554 22.7562V25.7562H82.1306V21.8276H82.1672Z" fill="#DDE2F6"/>
<path d="M87.4744 21.8276H89.5423C89.9998 21.8276 90.3292 21.9348 90.5489 22.1491C90.7685 22.3634 90.8783 22.6491 90.8783 23.0419C90.8783 23.4348 90.7502 23.7562 90.5123 23.9705C90.2743 24.2026 89.89 24.3098 89.3959 24.3098H88.7188V25.7741H87.4744V21.8276ZM88.7188 23.5062H89.0299C89.2678 23.5062 89.4325 23.4705 89.5423 23.3812C89.6338 23.2919 89.6887 23.2026 89.6887 23.0776C89.6887 22.9526 89.6521 22.8455 89.5606 22.7562C89.4691 22.6669 89.3227 22.6312 89.0848 22.6312H88.7371V23.5062H88.7188Z" fill="#DDE2F6"/>
<path d="M91.5369 21.8276H92.7813V24.7919H94.7211V25.7562H91.5369V21.8276Z" fill="#DDE2F6"/>
<path d="M95.3435 21.8276H96.5879V25.7562H95.3435V21.8276Z" fill="#DDE2F6"/>
<path d="M99.9555 25.0953H98.5463L98.345 25.7381H97.0823L98.6012 21.8096H99.9555L101.474 25.7381H100.175L99.9555 25.0953ZM99.6992 24.256L99.26 22.8453L98.8208 24.256H99.6992Z" fill="#DDE2F6"/>
<path d="M101.858 21.8276H103.011L104.53 24.0062V21.8276H105.702V25.7562H104.53L103.03 23.5955V25.7562H101.858V21.8276Z" fill="#DDE2F6"/>
<path d="M106.25 21.8276H110.039V22.7919H108.776V25.7562H107.532V22.7919H106.269V21.8276H106.25Z" fill="#DDE2F6"/>
<path d="M60.8287 27.8107L64.4339 26.7035L63.2627 24.1678C62.4025 25.2214 61.5424 26.5785 60.8287 27.8107ZM59.6026 16.2214L52.5386 0.864258L0.821289 3.7214L15.1506 41.8643L42.7295 33.3821C40.9726 30.9178 40.3321 27.9893 42.3635 26.5607C44.6327 24.9535 48.0549 26.8107 50.2327 29.4357C52.3373 26.0071 58.2483 18.025 59.6026 16.2214Z" fill="#DDE2F6"/>
<path d="M50.928 11.9628C53.0875 11.9628 54.8443 10.3557 54.8443 8.35568C54.8443 6.35568 53.0875 4.74854 50.928 4.74854C48.7686 4.74854 47.0117 6.35568 47.0117 8.35568C47.0117 10.3378 48.7686 11.9628 50.928 11.9628ZM47.7254 13.5164H54.1306V29.8557H47.7254V13.5164Z" fill="white"/>
<path d="M44.5593 18.2839C44.6142 18.3017 44.6508 18.2839 44.6508 18.2303V14.0874C44.6508 14.0339 44.6142 13.9803 44.5593 13.9446C44.5593 13.9446 43.7175 13.4089 41.1554 13.266C41.0273 13.1946 38.7764 13.1767 38.1724 13.266C28.8392 13.9982 28.4915 20.5874 28.4915 20.8732V22.4803C28.4915 22.6767 28.4915 29.4089 38.1724 29.9982C39.1241 30.0696 40.9724 29.9982 41.1554 29.9982C43.3881 29.9982 44.9253 29.3374 44.9253 29.3374C44.9802 29.3196 45.0168 29.266 45.0168 29.2124V25.3374C45.0168 25.2839 44.9802 25.266 44.9436 25.3017C44.9436 25.3017 44.2482 25.8374 41.2103 26.141C40.3502 26.2303 39.9293 26.1946 39.6182 26.141C35.2992 25.4267 35.0979 22.3553 35.0979 22.3553C35.0979 22.3017 35.0796 22.2124 35.0796 22.1767V20.9982C35.0796 20.9446 35.0796 20.8553 35.0979 20.8196C35.0979 20.8196 35.3908 17.516 39.6182 17.1589H41.2103C43.0587 17.391 44.5593 18.2839 44.5593 18.2839Z" fill="white"/>
<path d="M10.7034 29.8028C10.7034 29.8564 10.74 29.8921 10.7949 29.8921H17.0353C17.0903 29.8921 17.1269 29.8564 17.1269 29.8028V25.0528C17.1269 24.9992 17.1635 24.9635 17.2184 24.9635C17.2184 24.9635 27.1921 25.6599 27.1921 19.1421C27.1921 13.9814 20.9334 13.4278 18.8837 13.5171H10.7949C10.74 13.5171 10.7034 13.5528 10.7034 13.6064V29.8028ZM17.017 21.3385V17.0706H18.5543C18.5543 17.0706 20.7687 17.1599 20.9517 18.6421C20.9883 18.7492 20.9883 19.4814 20.9517 19.5171C20.6589 21.2492 18.7373 21.3385 18.7373 21.3385H17.017Z" fill="white"/>
<path d="M51.1111 37.7388C51.6235 37.7388 52.0261 37.7388 52.6849 37.453C54.9542 36.2923 62.6221 18.0245 70.711 12.3995C70.7659 12.3638 70.8208 12.3102 70.8574 12.2566C70.9123 12.1852 70.9123 12.1138 70.9123 12.1138C70.9123 12.1138 70.9123 11.7388 69.7227 11.7388C62.5306 11.5423 55.0457 26.2745 51.1111 32.0959C51.0562 32.1673 50.8 32.0959 50.8 32.0959C50.8 32.0959 48.1647 29.0602 45.8771 27.8995C45.8222 27.8816 45.566 27.7923 45.2915 27.8102C45.1085 27.8102 44.0471 28.0245 43.553 28.5245C42.9674 29.1316 42.9857 29.4709 42.9857 30.203C42.9857 30.2566 43.0223 30.5066 43.0955 30.6316C43.6628 31.5959 46.2066 35.0245 48.3111 36.9173C48.6222 37.1495 49.1163 37.7388 51.1111 37.7388Z" fill="#DDE2F6"/>
<path d="M72.8337 6.88232H78.818C80.0075 6.88232 80.9592 7.04304 81.6729 7.34661C82.4049 7.66804 83.0088 8.11447 83.4663 8.6859C83.9422 9.27518 84.2899 9.95375 84.4912 10.7216C84.7108 11.4895 84.8206 12.3109 84.8206 13.1859C84.8206 14.543 84.6559 15.5966 84.3448 16.3466C84.0337 17.0966 83.5944 17.7216 83.0271 18.2395C82.4598 18.7395 81.8559 19.0788 81.2154 19.2573C80.337 19.4895 79.5317 19.5966 78.818 19.5966H72.8337V6.88232ZM76.8599 9.75732V16.7038H77.8481C78.6899 16.7038 79.2938 16.6145 79.6415 16.4359C79.9892 16.2573 80.2821 15.9359 80.4834 15.4895C80.6847 15.043 80.7945 14.293 80.7945 13.2752C80.7945 11.918 80.5749 11.0073 80.1173 10.5073C79.6598 10.0073 78.9278 9.75732 77.8664 9.75732H76.8599Z" fill="#DDE2F6"/>
<path d="M85.9368 15.3999L89.7799 15.1678C89.8714 15.7749 90.0361 16.2392 90.2923 16.5606C90.7132 17.0785 91.2988 17.3285 92.0674 17.3285C92.6348 17.3285 93.0923 17.2035 93.4034 16.9356C93.7145 16.6678 93.8792 16.3642 93.8792 16.0249C93.8792 15.7035 93.7328 15.3999 93.44 15.132C93.1472 14.8642 92.4517 14.632 91.372 14.3999C89.5969 14.007 88.3524 13.4892 87.5838 12.8463C86.8152 12.2035 86.4492 11.382 86.4492 10.382C86.4492 9.72133 86.6505 9.11419 87.0348 8.5249C87.4191 7.93562 88.0047 7.48919 88.7917 7.1499C89.5786 6.81062 90.64 6.6499 91.9942 6.6499C93.6596 6.6499 94.9406 6.95347 95.8007 7.56062C96.6792 8.16776 97.1916 9.13205 97.3563 10.4535L93.5498 10.6678C93.44 10.0963 93.2387 9.68562 92.9093 9.41776C92.5799 9.1499 92.1406 9.0249 91.5733 9.0249C91.0975 9.0249 90.7498 9.11419 90.5119 9.31062C90.274 9.50705 90.1642 9.73919 90.1642 10.0249C90.1642 10.2213 90.2557 10.4178 90.457 10.5785C90.64 10.7392 91.0975 10.8999 91.8112 11.0428C93.5681 11.4178 94.8308 11.7928 95.5994 12.1678C96.3681 12.5428 96.9171 13.0249 97.2648 13.5785C97.6125 14.132 97.7772 14.7749 97.7772 15.4713C97.7772 16.2928 97.5393 17.0428 97.0818 17.7213C96.6243 18.4178 95.9655 18.9356 95.1419 19.2928C94.3184 19.6499 93.257 19.8285 91.9942 19.8285C89.7799 19.8285 88.2426 19.4178 87.3825 18.5785C86.5407 17.7392 86.0649 16.6856 85.9368 15.3999Z" fill="#DDE2F6"/>
<path d="M98.8022 15.3999L102.645 15.1678C102.737 15.7749 102.902 16.2392 103.158 16.5606C103.579 17.0785 104.164 17.3285 104.933 17.3285C105.5 17.3285 105.958 17.2035 106.269 16.9356C106.58 16.6678 106.745 16.3642 106.745 16.0249C106.745 15.7035 106.598 15.3999 106.305 15.132C106.013 14.8642 105.317 14.632 104.237 14.3999C102.462 14.007 101.218 13.4892 100.449 12.8463C99.699 12.2035 99.3147 11.382 99.3147 10.382C99.3147 9.72133 99.516 9.11419 99.9003 8.5249C100.285 7.93562 100.87 7.48919 101.657 7.1499C102.444 6.81062 103.505 6.6499 104.86 6.6499C106.525 6.6499 107.806 6.95347 108.666 7.56062C109.545 8.16776 110.057 9.13205 110.222 10.4535L106.415 10.6678C106.305 10.0963 106.104 9.68562 105.775 9.41776C105.445 9.1499 105.006 9.0249 104.439 9.0249C103.963 9.0249 103.615 9.11419 103.377 9.31062C103.139 9.50705 103.03 9.73919 103.03 10.0249C103.03 10.2213 103.121 10.4178 103.322 10.5785C103.505 10.7392 103.963 10.8999 104.677 11.0428C106.434 11.4178 107.696 11.7928 108.465 12.1678C109.234 12.5428 109.783 13.0249 110.13 13.5785C110.478 14.132 110.643 14.7749 110.643 15.4713C110.643 16.2928 110.405 17.0428 109.947 17.7213C109.49 18.4178 108.831 18.9356 108.007 19.2928C107.184 19.6499 106.122 19.8285 104.86 19.8285C102.645 19.8285 101.108 19.4178 100.248 18.5785C99.3879 17.7392 98.912 16.6856 98.8022 15.3999Z" fill="#DDE2F6"/>
</svg>
