<svg width="89" height="38" viewBox="0 0 89 38" fill="none" xmlns="http://www.w3.org/2000/svg">
<g clip-path="url(#clip0_1237_3659)">
<path d="M35.8839 20.6247L31.4993 32.2557L31.0295 29.8893C29.9333 26.9904 27.5603 23.9496 24.8018 22.7072L28.8251 37.6511H33.5832L40.6541 20.6011H35.8839V20.6247Z" fill="#DDE2F6"/>
<path d="M39.6541 37.6866L42.4607 20.6011H46.9538L44.1472 37.6866H39.6541Z" fill="#DDE2F6"/>
<path d="M60.4331 21.0274C59.5417 20.6843 58.1444 20.3057 56.4098 20.3057C51.9648 20.3057 48.845 22.6248 48.8209 25.9377C48.7968 28.3988 51.0494 29.7595 52.7478 30.5759C54.5065 31.416 55.0847 31.9484 55.0847 32.6939C55.0727 33.8416 53.6874 34.3622 52.3985 34.3622C50.6037 34.3622 49.652 34.1019 48.1704 33.4748L47.5922 33.2026L46.9658 37.0244C48.0138 37.4977 49.9532 37.9118 51.9769 37.9355C56.6868 37.9355 59.7585 35.64 59.7947 32.1023C59.8187 30.15 58.6142 28.6828 56.0243 27.4641C54.4583 26.6713 53.4947 26.1507 53.5067 25.3461C53.5067 24.6362 54.3138 23.879 56.0845 23.879C57.5541 23.8553 58.6142 24.1866 59.4453 24.5416L59.8428 24.7427L60.4331 21.0274Z" fill="#DDE2F6"/>
<path d="M71.9491 20.625H68.4799C67.4078 20.625 66.6007 20.9208 66.1189 22.0449L59.4575 37.6987H64.1674C64.1674 37.6987 64.9384 35.5926 65.1191 35.1311C65.637 35.1311 70.2145 35.143 70.8649 35.143C71.0095 35.7346 71.407 37.6987 71.407 37.6987H75.5869L71.9491 20.625ZM66.408 31.6288C66.7814 30.6468 68.1908 26.8487 68.1908 26.8487C68.1667 26.896 68.5642 25.8666 68.7931 25.2158L69.0942 26.683C69.0942 26.683 69.9615 30.7651 70.1422 31.617C69.4435 31.6288 67.2873 31.6288 66.408 31.6288Z" fill="#DDE2F6"/>
<path d="M27.4154 20.6128H20.1759L20.1277 20.9086C25.7531 22.3284 29.4753 25.7952 31.0171 29.901L29.4512 22.0445C29.1862 20.9678 28.3911 20.6483 27.4154 20.6128Z" fill="#DDE2F6"/>
<path d="M6.58813 16.483H3.73326L0.420654 1.8585L3.58871 1.33789L5.85333 12.7795L11.6113 1.49171H14.6468L6.58813 16.483Z" fill="#DDE2F6"/>
<path d="M21.4888 11.704H14.6588C14.4661 13.7391 15.4297 14.6265 17.068 14.6265C18.4291 14.6265 19.6337 14.1296 20.9226 13.325L20.9106 15.3601C19.6458 16.141 18.1762 16.638 16.4536 16.638C13.4783 16.638 11.5148 14.9696 12.1051 11.207C12.6351 7.81122 15.0322 5.75244 17.8028 5.75244C20.9949 5.75244 22.055 8.10703 21.5972 11.0769C21.5731 11.2899 21.5008 11.5502 21.4888 11.704ZM17.4655 7.55092C16.4054 7.55092 15.4177 8.36733 14.9599 10.083H19.188C19.2603 8.46199 18.7423 7.55092 17.4655 7.55092Z" fill="#DDE2F6"/>
<path d="M25.9341 10.4257L24.9945 16.4128H22.3564L23.9947 5.96504H26.2473V8.05932C27.1386 6.85245 28.3553 5.83489 30.0297 5.74023L30.0417 8.31963C28.3553 8.43795 26.8616 9.30169 25.9341 10.4257Z" fill="#DDE2F6"/>
<path d="M29.9932 16.413L31.6314 5.96526H34.2694L32.6433 16.413H29.9932ZM33.2455 4.21411C32.3662 4.21411 31.7519 3.61067 31.8964 2.74693C32.041 1.85952 32.836 1.23242 33.7153 1.23242C34.5947 1.23242 35.1849 1.85952 35.0404 2.74693C34.9079 3.61067 34.1128 4.21411 33.2455 4.21411Z" fill="#DDE2F6"/>
<path d="M41.5937 3.11317C40.6902 3.11317 40.1482 3.50363 40.0036 4.43837L39.7627 5.97654H41.7864V8.09448H39.4254L38.1245 16.4124H35.4985L36.7994 8.08265H35.2576L35.5949 5.96471H37.1367L37.4138 4.16623C37.7752 1.84714 39.4134 0.983398 41.5937 0.983398C42.0514 0.983398 42.4008 1.03073 42.6658 1.06622L42.6899 3.18417C42.4248 3.1605 42.0394 3.11317 41.5937 3.11317Z" fill="#DDE2F6"/>
<path d="M41.6177 16.413L43.2559 5.96526H45.894L44.2678 16.413H41.6177ZM44.8821 4.21411C44.0028 4.21411 43.3884 3.61067 43.5209 2.74693C43.6655 1.85952 44.4605 1.23242 45.3398 1.23242C46.2192 1.23242 46.8094 1.85952 46.6649 2.74693C46.5324 3.61067 45.7374 4.21411 44.8821 4.21411Z" fill="#DDE2F6"/>
<path d="M56.1568 11.704H49.3268C49.1461 13.7391 50.0977 14.6265 51.7359 14.6265C53.0971 14.6265 54.3017 14.1296 55.5906 13.325L55.5786 15.3601C54.3138 16.141 52.8442 16.638 51.1216 16.638C48.1463 16.638 46.1828 14.9696 46.773 11.207C47.3031 7.81122 49.7002 5.75244 52.4707 5.75244C55.6629 5.75244 56.7229 8.10703 56.2652 11.0769C56.2411 11.2899 56.1688 11.5502 56.1568 11.704ZM52.1335 7.55092C51.0734 7.55092 50.0857 8.36733 49.6279 10.083H53.856C53.9283 8.46199 53.4103 7.55092 52.1335 7.55092Z" fill="#DDE2F6"/>
<path d="M63.9747 16.4123L63.9867 14.957C63.0953 15.8444 61.9389 16.6253 60.4693 16.6253C58.2408 16.6253 56.711 15.0043 57.2651 11.4783C57.8795 7.58556 60.3248 5.85808 62.7942 5.85808C63.806 5.85808 64.601 6.03556 65.2033 6.24854L65.9984 1.20807L68.7087 0.793945L66.2634 16.4123H63.9747ZM64.8661 8.39014C64.2517 8.08251 63.7699 7.94052 62.8664 7.94052C61.4812 7.94052 60.2886 9.04091 59.9393 11.3363C59.6261 13.3715 60.3489 14.318 61.5173 14.318C62.481 14.318 63.3242 13.7501 64.1674 12.8863L64.8661 8.39014Z" fill="#DDE2F6"/>
<path d="M74.3459 16.5195C73.0931 16.5195 72.0692 16.3184 71.1296 15.9989L72.8642 4.90041L74.912 4.59277L74.1652 9.3966C74.7675 8.87599 75.5987 8.34354 76.6105 8.34354C78.309 8.34354 79.4533 9.58591 79.0317 12.2481C78.574 15.1588 76.743 16.5195 74.3459 16.5195ZM75.8275 10.071C75.165 10.071 74.4904 10.5088 73.9002 11.1004L73.334 14.6855C73.7315 14.8275 73.9966 14.8985 74.5627 14.8985C75.8275 14.8985 76.7189 14.1413 76.996 12.3428C77.2369 10.8283 76.7189 10.071 75.8275 10.071Z" fill="#DDE2F6"/>
<path d="M83.7541 16.8505C82.7302 18.8027 81.7184 19.4062 80.1645 19.4062C79.8152 19.4062 79.6224 19.3707 79.4417 19.3234L79.4297 17.7024C79.6827 17.7734 79.9597 17.8207 80.3452 17.8207C80.9234 17.8207 81.4413 17.5604 81.7786 16.9806L82.0436 16.46L80.3452 8.66265L82.4773 8.40234L83.465 14.0344L86.1272 8.50883H88.1147L83.7541 16.8505Z" fill="#DDE2F6"/>
</g>
<defs>
<clipPath id="clip0_1237_3659">
<rect width="87.6938" height="37.1409" fill="white" transform="translate(0.420776 0.793945)"/>
</clipPath>
</defs>
</svg>
