<svg width="40" height="40" viewBox="0 0 40 40" fill="none" xmlns="http://www.w3.org/2000/svg">
<path d="M33.3333 31.3333V11.0666L22.7523 4.69163L22.7523 4.69162C21.7518 4.08884 21.2516 3.78745 20.7173 3.66972C20.2447 3.56558 19.7552 3.56558 19.2826 3.66972C18.7483 3.78745 18.2481 4.08885 17.2476 4.69164L6.66663 11.0666V31.3333C6.66663 33.2001 6.66663 34.1336 7.02994 34.8466C7.34952 35.4738 7.85945 35.9838 8.48666 36.3033C9.1997 36.6666 10.1331 36.6666 12 36.6666H28C29.8668 36.6666 30.8002 36.6666 31.5133 36.3033C32.1405 35.9838 32.6504 35.4738 32.97 34.8466C33.3333 34.1336 33.3333 33.2001 33.3333 31.3333Z" fill="url(#paint0_linear_986_7639)"/>
<path fill-rule="evenodd" clip-rule="evenodd" d="M1.90415 15.8575C2.37773 16.6468 3.40149 16.9027 4.19079 16.4292L20 6.94366L35.8091 16.4292C36.5984 16.9027 37.6222 16.6468 38.0958 15.8575C38.5694 15.0682 38.3134 14.0444 37.5241 13.5709L21.715 4.08535C20.6593 3.45199 19.3406 3.45199 18.285 4.08535L2.47581 13.5709C1.68651 14.0444 1.43057 15.0682 1.90415 15.8575Z" fill="#1E2136"/>
<path d="M15 26.6667C15 23.9053 17.2386 21.6667 20 21.6667C22.7614 21.6667 25 23.9053 25 26.6667V36.6667H15V26.6667Z" fill="#1E2136"/>
<defs>
<linearGradient id="paint0_linear_986_7639" x1="20" y1="3.59161" x2="20" y2="36.6666" gradientUnits="userSpaceOnUse">
<stop stop-color="#ADB1B5"/>
<stop offset="1" stop-color="#8D9298"/>
</linearGradient>
</defs>
</svg>
