<svg width="40" height="40" viewBox="0 0 40 40" fill="none" xmlns="http://www.w3.org/2000/svg">
<path d="M5 23.3334C5 22.4129 5.74619 21.6667 6.66667 21.6667H33.3333C34.2538 21.6667 35 22.4129 35 23.3334V31.6667C35 34.4281 32.7614 36.6667 30 36.6667H10C7.23858 36.6667 5 34.4281 5 31.6667V23.3334Z" fill="url(#paint0_linear_978_7489)"/>
<path d="M3.33325 13.3333C3.33325 11.4924 4.82564 10 6.66659 10H33.3333C35.1742 10 36.6666 11.4924 36.6666 13.3333V15C36.6666 16.8409 35.1742 18.3333 33.3333 18.3333H6.66659C4.82564 18.3333 3.33325 16.8409 3.33325 15V13.3333Z" fill="url(#paint1_linear_978_7489)"/>
<path fill-rule="evenodd" clip-rule="evenodd" d="M11.6667 8.33331C11.6667 11.0947 13.9053 13.3333 16.6667 13.3333H18.3334V17.5C18.3334 17.9602 18.7065 18.3333 19.1667 18.3333H20.8334C21.2937 18.3333 21.6667 17.9602 21.6667 17.5V13.3333H23.3334C26.0948 13.3333 28.3334 11.0947 28.3334 8.33331C28.3334 5.57189 26.0948 3.33331 23.3334 3.33331C22.0528 3.33331 20.8847 3.81474 20.0001 4.60647C19.1155 3.81474 17.9473 3.33331 16.6667 3.33331C13.9053 3.33331 11.6667 5.57189 11.6667 8.33331ZM17.5001 9.99998C17.9603 9.99998 18.3334 9.62688 18.3334 9.16665V8.33331C18.3334 7.41284 17.5872 6.66665 16.6667 6.66665C15.7463 6.66665 15.0001 7.41284 15.0001 8.33331C15.0001 9.25379 15.7463 9.99998 16.6667 9.99998H17.5001ZM22.5001 9.99998C22.0398 9.99998 21.6667 9.62688 21.6667 9.16665V8.33331C21.6667 7.41284 22.4129 6.66665 23.3334 6.66665C24.2539 6.66665 25.0001 7.41284 25.0001 8.33331C25.0001 9.25379 24.2539 9.99998 23.3334 9.99998H22.5001Z" fill="#1E2136"/>
<path d="M18.3334 22.5C18.3334 22.0397 18.7065 21.6666 19.1667 21.6666H20.8334C21.2937 21.6666 21.6667 22.0397 21.6667 22.5V35.8333C21.6667 36.2935 21.2937 36.6666 20.8334 36.6666H19.1667C18.7065 36.6666 18.3334 36.2935 18.3334 35.8333V22.5Z" fill="#1E2136"/>
<defs>
<linearGradient id="paint0_linear_978_7489" x1="20" y1="21.6667" x2="20" y2="36.6667" gradientUnits="userSpaceOnUse">
<stop stop-color="#ADB1B5"/>
<stop offset="1" stop-color="#8D9298"/>
</linearGradient>
<linearGradient id="paint1_linear_978_7489" x1="19.9999" y1="10" x2="19.9999" y2="18.3333" gradientUnits="userSpaceOnUse">
<stop stop-color="#ADB1B5"/>
<stop offset="1" stop-color="#8D9298"/>
</linearGradient>
</defs>
</svg>
