<svg width="40" height="40" viewBox="0 0 40 40" fill="none" xmlns="http://www.w3.org/2000/svg">
<path fill-rule="evenodd" clip-rule="evenodd" d="M28.3334 21.6667C29.2539 21.6667 30.0001 22.4129 30.0001 23.3334V35C30.0001 35.9205 29.2539 36.6667 28.3334 36.6667C27.4129 36.6667 26.6667 35.9205 26.6667 35V23.3334C26.6667 22.4129 27.4129 21.6667 28.3334 21.6667Z" fill="#1E2136"/>
<path d="M28.6233 3.33331C27.5427 3.33331 26.6667 4.20927 26.6667 5.28983V23.3333C26.6667 24.4004 27.7024 25.209 28.7376 24.9502L35.4043 23.2836C36.1463 23.0981 36.6667 22.4314 36.6667 21.6666V11.3768C36.6667 6.9345 33.0656 3.33331 28.6233 3.33331Z" fill="url(#paint0_linear_978_7461)"/>
<path fill-rule="evenodd" clip-rule="evenodd" d="M11.6667 18.3333C12.5871 18.3333 13.3333 19.0795 13.3333 20V35C13.3333 35.9205 12.5871 36.6666 11.6667 36.6666C10.7462 36.6666 10 35.9205 10 35V20C10 19.0795 10.7462 18.3333 11.6667 18.3333Z" fill="#1E2136"/>
<path d="M6.66659 4.99998C6.66659 4.07951 5.92039 3.33331 4.99992 3.33331C4.07944 3.33331 3.33325 4.07951 3.33325 4.99998V11.6666C3.33325 16.269 7.06421 20 11.6666 20C16.269 20 19.9999 16.269 19.9999 11.6666V4.99998C19.9999 4.07951 19.2537 3.33331 18.3333 3.33331C17.4128 3.33331 16.6666 4.07951 16.6666 4.99998V11.6666C16.6666 13.8437 15.2752 15.6957 13.3333 16.3821V4.99998C13.3333 4.07951 12.5871 3.33331 11.6666 3.33331C10.7461 3.33331 9.99992 4.07951 9.99992 4.99998V16.3821C8.05793 15.6957 6.66659 13.8437 6.66659 11.6666V4.99998Z" fill="url(#paint1_linear_978_7461)"/>
<defs>
<linearGradient id="paint0_linear_978_7461" x1="31.6667" y1="3.33331" x2="31.6667" y2="24.9988" gradientUnits="userSpaceOnUse">
<stop stop-color="#ADB1B5"/>
<stop offset="1" stop-color="#8D9298"/>
</linearGradient>
<linearGradient id="paint1_linear_978_7461" x1="11.6666" y1="3.33331" x2="11.6666" y2="20" gradientUnits="userSpaceOnUse">
<stop stop-color="#ADB1B5"/>
<stop offset="1" stop-color="#8D9298"/>
</linearGradient>
</defs>
</svg>
