<svg width="40" height="40" viewBox="0 0 40 40" fill="none" xmlns="http://www.w3.org/2000/svg">
<path d="M21.6667 8.33331H3.33333C1.49238 8.33331 0 9.8257 0 11.6666V25C0 26.8409 1.49238 28.3333 3.33333 28.3333H5H11.6667H24.5C24.7761 28.3333 25 28.1095 25 27.8333V11.6676C25 9.82664 23.5076 8.33331 21.6667 8.33331Z" fill="url(#paint0_linear_978_7502)" fill-opacity="0.5"/>
<path d="M25.5 13.3333C25.2239 13.3333 25 13.5572 25 13.8333V27.8333C25 28.1095 25.2239 28.3333 25.5 28.3333H30H35H38.3333C39.2538 28.3333 40 27.5871 40 26.6666V21.1062C40 20.0414 39.4913 19.0407 38.631 18.4132L32.5445 13.9736C31.974 13.5575 31.2862 13.3333 30.5801 13.3333H25.5Z" fill="#1E2136"/>
<path d="M8.33333 31.6667C10.1743 31.6667 11.6667 30.1743 11.6667 28.3333C11.6667 26.4924 10.1743 25 8.33333 25C6.49238 25 5 26.4924 5 28.3333C5 30.1743 6.49238 31.6667 8.33333 31.6667Z" fill="#1E2136"/>
<path d="M31.6667 31.6667C33.5076 31.6667 35 30.1743 35 28.3333C35 26.4924 33.5076 25 31.6667 25C29.8257 25 28.3333 26.4924 28.3333 28.3333C28.3333 30.1743 29.8257 31.6667 31.6667 31.6667Z" fill="#1E2136"/>
<defs>
<linearGradient id="paint0_linear_978_7502" x1="12.5" y1="8.33331" x2="12.5" y2="28.3333" gradientUnits="userSpaceOnUse">
<stop stop-color="#ADB1B5"/>
<stop offset="1" stop-color="#8D9298"/>
</linearGradient>
</defs>
</svg>
